<svg xmlns="http://www.w3.org/2000/svg" xmlns:xlink="http://www.w3.org/1999/xlink" width="2221.206" height="2312.416" viewBox="0 0 2221.206 2312.416">
  <defs>
    <linearGradient id="linear-gradient" x1="0.5" y1="0.368" x2="0.5" y2="1.147" gradientUnits="objectBoundingBox">
      <stop offset="0" stop-color="#0e8b1c"/>
      <stop offset="1" stop-color="#006942"/>
    </linearGradient>
    <linearGradient id="linear-gradient-2" y1="-1.734" y2="1.376" xlink:href="#linear-gradient"/>
    <linearGradient id="linear-gradient-3" y1="-5.168" y2="0.306" xlink:href="#linear-gradient"/>
    <linearGradient id="linear-gradient-4" y1="-5.182" y2="2.727" xlink:href="#linear-gradient"/>
    <linearGradient id="linear-gradient-5" y1="-2599.65" x2="1" y2="-2599.65" gradientUnits="objectBoundingBox">
      <stop offset="0" stop-color="#004b00"/>
      <stop offset="0.056" stop-color="#004c03"/>
      <stop offset="1" stop-color="#006942"/>
    </linearGradient>
    <linearGradient id="linear-gradient-6" x1="0.35" y1="-372.742" x2="0.608" y2="-371.987" xlink:href="#linear-gradient-5"/>
    <linearGradient id="linear-gradient-7" x1="0" y1="-1957.85" x2="1" y2="-1957.85" xlink:href="#linear-gradient-5"/>
    <linearGradient id="linear-gradient-8" x1="1.11" y1="0.353" x2="0.258" y2="0.601" xlink:href="#linear-gradient"/>
    <linearGradient id="linear-gradient-9" x1="0.911" y1="0.753" x2="0.181" y2="0.257" gradientUnits="objectBoundingBox">
      <stop offset="0" stop-color="#004b00"/>
      <stop offset="1" stop-color="#00311f"/>
    </linearGradient>
    <linearGradient id="linear-gradient-10" x1="0.529" y1="0.39" x2="0.613" y2="0.104" xlink:href="#linear-gradient-5"/>
    <linearGradient id="linear-gradient-11" x1="0.853" y1="-191.83" x2="0.134" y2="-190.331" xlink:href="#linear-gradient-9"/>
    <linearGradient id="linear-gradient-12" x1="0.527" y1="-147.528" x2="1.037" y2="-148.36" xlink:href="#linear-gradient-5"/>
    <linearGradient id="linear-gradient-13" x1="-0.651" y1="0.586" x2="0.342" y2="0.27" gradientUnits="objectBoundingBox">
      <stop offset="0" stop-color="#eb9563"/>
      <stop offset="1" stop-color="#ebb495"/>
    </linearGradient>
    <linearGradient id="linear-gradient-14" x1="0.335" y1="-353.126" x2="0.942" y2="-352.796" gradientUnits="objectBoundingBox">
      <stop offset="0" stop-color="#fcad88"/>
      <stop offset="1" stop-color="#fccfb0"/>
    </linearGradient>
    <linearGradient id="linear-gradient-15" x1="-0.027" y1="-959.455" x2="0.905" y2="-959.728" gradientUnits="objectBoundingBox">
      <stop offset="0.005" stop-color="#20011a"/>
      <stop offset="1" stop-color="#18203b"/>
    </linearGradient>
    <linearGradient id="linear-gradient-16" x1="0.437" y1="-1392.286" x2="2.381" y2="-1391.37" xlink:href="#linear-gradient-14"/>
    <linearGradient id="linear-gradient-17" x1="0.5" y1="-934.01" x2="0.5" y2="-933.01" gradientUnits="objectBoundingBox">
      <stop offset="0" stop-color="#e6e7e8"/>
      <stop offset="0.313" stop-color="#c2d9db"/>
      <stop offset="1" stop-color="#77bec0"/>
    </linearGradient>
    <linearGradient id="linear-gradient-18" x1="0.5" y1="-1016.967" x2="0.5" y2="-1015.967" xlink:href="#linear-gradient-17"/>
    <linearGradient id="linear-gradient-19" x1="0.5" y1="-939.625" x2="0.5" y2="-938.625" xlink:href="#linear-gradient-17"/>
    <linearGradient id="linear-gradient-20" x1="0.5" y1="-1210.171" x2="0.5" y2="-1209.171" xlink:href="#linear-gradient-17"/>
    <linearGradient id="linear-gradient-21" x1="0.5" y1="-966.343" x2="0.5" y2="-965.343" xlink:href="#linear-gradient-17"/>
    <linearGradient id="linear-gradient-22" x1="0.905" y1="0.194" x2="0.291" y2="0.714" xlink:href="#linear-gradient"/>
    <linearGradient id="linear-gradient-23" x1="0" y1="-250.477" x2="1" y2="-250.477" xlink:href="#linear-gradient-5"/>
    <linearGradient id="linear-gradient-24" x1="0.68" y1="-251.693" x2="0.035" y2="-250.689" xlink:href="#linear-gradient-9"/>
    <linearGradient id="linear-gradient-25" x1="0.5" y1="-0.131" x2="0.5" y2="1.268" gradientUnits="objectBoundingBox">
      <stop offset="0" stop-color="#b5c3ce"/>
      <stop offset="1" stop-color="#a4b5b8"/>
    </linearGradient>
    <linearGradient id="linear-gradient-26" x1="0.902" y1="-1804.818" x2="-0.128" y2="-1803.716" gradientUnits="objectBoundingBox">
      <stop offset="0" stop-color="#a1bbbf"/>
      <stop offset="1" stop-color="#a4b5b8"/>
    </linearGradient>
    <linearGradient id="linear-gradient-27" x1="1.229" y1="-1998.048" x2="-0.183" y2="-1996.252" xlink:href="#linear-gradient-26"/>
    <linearGradient id="linear-gradient-28" x1="1.048" y1="-1327.002" x2="-0.238" y2="-1324.933" xlink:href="#linear-gradient-25"/>
    <linearGradient id="linear-gradient-29" x1="1.214" y1="-1504.943" x2="-0.144" y2="-1503.068" xlink:href="#linear-gradient-26"/>
    <linearGradient id="linear-gradient-30" x1="1.308" y1="-1869.183" x2="-0.233" y2="-1866.093" xlink:href="#linear-gradient-25"/>
    <linearGradient id="linear-gradient-31" x1="0.963" y1="-2437.071" x2="-0.199" y2="-2434.731" xlink:href="#linear-gradient-26"/>
    <linearGradient id="linear-gradient-32" x1="0" y1="-860.996" x2="1" y2="-860.996" xlink:href="#linear-gradient"/>
    <linearGradient id="linear-gradient-33" x1="0.419" y1="0.068" x2="0.597" y2="1.377" gradientUnits="objectBoundingBox">
      <stop offset="0" stop-color="#d7ffff"/>
      <stop offset="0.082" stop-color="#d2f9f9"/>
      <stop offset="1" stop-color="#a1bbbf"/>
    </linearGradient>
    <linearGradient id="linear-gradient-34" x1="1.027" y1="-534.499" x2="-0.044" y2="-534.365" gradientUnits="objectBoundingBox">
      <stop offset="0" stop-color="#93dedb"/>
      <stop offset="1" stop-color="#a1bbbf"/>
    </linearGradient>
    <linearGradient id="linear-gradient-35" x1="1.058" y1="-4362.593" x2="-0.008" y2="-4362.163" xlink:href="#linear-gradient-34"/>
    <linearGradient id="linear-gradient-36" x1="1.003" y1="-3287.453" x2="-0.035" y2="-3287.04" xlink:href="#linear-gradient-34"/>
    <linearGradient id="linear-gradient-37" x1="1" y1="-2019.938" x2="-0.026" y2="-2019.725" xlink:href="#linear-gradient-34"/>
    <linearGradient id="linear-gradient-38" x1="0.811" y1="-2127.329" x2="0.202" y2="-2126.771" xlink:href="#linear-gradient-9"/>
    <linearGradient id="linear-gradient-39" x1="0.823" y1="-2120.973" x2="0.189" y2="-2120.371" xlink:href="#linear-gradient-9"/>
    <linearGradient id="linear-gradient-40" x1="0.55" y1="0.669" x2="-0.281" y2="1.796" xlink:href="#linear-gradient-9"/>
    <linearGradient id="linear-gradient-41" x1="0.908" y1="0.484" x2="0.264" y2="0.511" xlink:href="#linear-gradient-9"/>
    <linearGradient id="linear-gradient-42" x1="1.044" y1="-271.266" x2="-0.089" y2="-271.196" xlink:href="#linear-gradient-9"/>
    <linearGradient id="linear-gradient-43" x1="1.099" y1="-351.206" x2="-0.005" y2="-351.118" xlink:href="#linear-gradient-9"/>
    <linearGradient id="linear-gradient-44" x1="0.658" y1="-690.601" x2="-0.425" y2="-690.399" gradientUnits="objectBoundingBox">
      <stop offset="0" stop-color="#006300"/>
      <stop offset="0.297" stop-color="#005800"/>
      <stop offset="1" stop-color="#00311f"/>
    </linearGradient>
    <linearGradient id="linear-gradient-45" x1="0.661" y1="-825.699" x2="-0.441" y2="-825.462" xlink:href="#linear-gradient-9"/>
    <linearGradient id="linear-gradient-46" x1="0.695" y1="-1583.196" x2="0.292" y2="-1582.752" xlink:href="#linear-gradient-9"/>
    <linearGradient id="linear-gradient-47" x1="0.462" y1="0.282" x2="-0.223" y2="1.105" xlink:href="#linear-gradient-9"/>
    <linearGradient id="linear-gradient-48" x1="0.694" y1="-1468.99" x2="0.292" y2="-1468.58" xlink:href="#linear-gradient-9"/>
    <linearGradient id="linear-gradient-49" x1="0.581" y1="0.461" x2="0.406" y2="0.583" xlink:href="#linear-gradient-9"/>
    <linearGradient id="linear-gradient-50" x1="0.926" y1="-228.537" x2="-0.173" y2="-227.518" xlink:href="#linear-gradient-9"/>
    <linearGradient id="linear-gradient-51" x1="0.715" y1="-520.398" x2="0.223" y2="-519.964" xlink:href="#linear-gradient-44"/>
    <linearGradient id="linear-gradient-52" x1="0.611" y1="-649.499" x2="0.119" y2="-648.973" xlink:href="#linear-gradient-9"/>
    <linearGradient id="linear-gradient-53" x1="0.536" y1="-2516.551" x2="0.402" y2="-2516.185" xlink:href="#linear-gradient-9"/>
    <linearGradient id="linear-gradient-54" x1="0.569" y1="-969.442" x2="0.434" y2="-968.679" xlink:href="#linear-gradient-9"/>
    <linearGradient id="linear-gradient-55" x1="1.242" y1="-463.06" x2="0.314" y2="-462.6" gradientUnits="objectBoundingBox">
      <stop offset="0"/>
      <stop offset="1" stop-color="#abced3"/>
    </linearGradient>
    <linearGradient id="linear-gradient-56" x1="0.417" y1="-614.362" x2="0.554" y2="-615.656" gradientUnits="objectBoundingBox">
      <stop offset="0" stop-color="#d7ffff"/>
      <stop offset="1" stop-color="#abced3"/>
    </linearGradient>
    <linearGradient id="linear-gradient-57" x1="0.443" y1="-1415.319" x2="0.553" y2="-1417.778" xlink:href="#linear-gradient-9"/>
    <linearGradient id="linear-gradient-58" x1="0.349" y1="0.275" x2="0.784" y2="1.385" xlink:href="#linear-gradient-56"/>
    <linearGradient id="linear-gradient-59" x1="0.547" y1="-616.208" x2="0.493" y2="-617.099" xlink:href="#linear-gradient-56"/>
    <linearGradient id="linear-gradient-60" x1="0.018" y1="-115.16" x2="1.031" y2="-115.16" gradientUnits="objectBoundingBox">
      <stop offset="0" stop-color="#00254a"/>
      <stop offset="0.196" stop-color="#082859"/>
      <stop offset="1" stop-color="#2a3698"/>
    </linearGradient>
    <linearGradient id="linear-gradient-61" x1="0.955" y1="-1118.248" x2="0.002" y2="-1118.248" gradientUnits="objectBoundingBox">
      <stop offset="0" stop-color="#f1f2f2"/>
      <stop offset="1" stop-color="#bcbec0"/>
    </linearGradient>
    <linearGradient id="linear-gradient-62" x1="0.956" y1="-6706.958" x2="0.002" y2="-6706.958" xlink:href="#linear-gradient-61"/>
    <linearGradient id="linear-gradient-64" x1="0.956" y1="-1118.248" x2="0.002" y2="-1118.248" xlink:href="#linear-gradient-61"/>
    <linearGradient id="linear-gradient-69" x1="0.5" y1="-9351.174" x2="0.5" y2="-9352.477" xlink:href="#linear-gradient-60"/>
    <linearGradient id="linear-gradient-70" x1="0.5" y1="-18703.434" x2="0.5" y2="-18704.738" xlink:href="#linear-gradient-60"/>
    <linearGradient id="linear-gradient-71" x1="0.5" y1="-2475.17" x2="0.5" y2="-2476.386" gradientUnits="objectBoundingBox">
      <stop offset="0" stop-color="#eaab3a"/>
      <stop offset="1" stop-color="#ffc420"/>
    </linearGradient>
    <linearGradient id="linear-gradient-72" x1="0.5" y1="-2474.961" x2="0.5" y2="-2476.105" gradientUnits="objectBoundingBox">
      <stop offset="0" stop-color="#ea973a"/>
      <stop offset="1" stop-color="#ffd820"/>
    </linearGradient>
    <linearGradient id="linear-gradient-73" x1="0.5" y1="-5124.16" x2="0.5" y2="-5125.376" xlink:href="#linear-gradient-71"/>
    <linearGradient id="linear-gradient-74" x1="0.5" y1="-13972.008" x2="0.5" y2="-13973.224" xlink:href="#linear-gradient-72"/>
    <linearGradient id="linear-gradient-85" x1="0.5" y1="-2475.17" x2="0.5" y2="-2476.386" xlink:href="#linear-gradient-71"/>
    <linearGradient id="linear-gradient-86" x1="0.5" y1="-2474.961" x2="0.5" y2="-2476.105" xlink:href="#linear-gradient-72"/>
    <linearGradient id="linear-gradient-88" x1="0.5" y1="-13972.008" x2="0.5" y2="-13973.224" xlink:href="#linear-gradient-72"/>
    <linearGradient id="linear-gradient-97" x1="0.287" y1="-481.066" x2="0.502" y2="-481.893" gradientUnits="objectBoundingBox">
      <stop offset="0" stop-color="#2a60b8"/>
      <stop offset="1" stop-color="#2a3698"/>
    </linearGradient>
    <linearGradient id="linear-gradient-98" x1="0.83" y1="-332.312" x2="0.238" y2="-332.121" xlink:href="#linear-gradient-71"/>
    <linearGradient id="linear-gradient-99" x1="0.819" y1="-384.91" x2="0.227" y2="-384.689" xlink:href="#linear-gradient-71"/>
    <linearGradient id="linear-gradient-100" x1="0.664" y1="0.718" x2="0.348" y2="0.262" xlink:href="#linear-gradient-71"/>
    <linearGradient id="linear-gradient-101" x1="0.692" y1="-224.386" x2="0.471" y2="-224.124" xlink:href="#linear-gradient-71"/>
    <linearGradient id="linear-gradient-102" x1="0.437" y1="-403.119" x2="-0.017" y2="-403.713" xlink:href="#linear-gradient-14"/>
    <linearGradient id="linear-gradient-103" x1="0" y1="-259.49" x2="1" y2="-259.49" xlink:href="#linear-gradient-97"/>
    <linearGradient id="linear-gradient-104" x1="0.775" y1="0.14" x2="0.495" y2="0.593" xlink:href="#linear-gradient-97"/>
    <linearGradient id="linear-gradient-105" x1="0.446" y1="-210.292" x2="0.573" y2="-209.912" xlink:href="#linear-gradient-97"/>
    <linearGradient id="linear-gradient-106" x1="0.47" y1="-1771.81" x2="0.551" y2="-1774.004" xlink:href="#linear-gradient-97"/>
    <linearGradient id="linear-gradient-107" x1="0.992" y1="0.354" x2="0.118" y2="0.807" xlink:href="#linear-gradient-97"/>
    <linearGradient id="linear-gradient-108" x1="0.778" y1="-157.683" x2="0.274" y2="-157.335" xlink:href="#linear-gradient-97"/>
    <linearGradient id="linear-gradient-109" x1="0" y1="0.5" x2="1" y2="0.5" xlink:href="#linear-gradient-14"/>
    <linearGradient id="linear-gradient-111" x1="0" y1="-448.5" x2="1" y2="-448.5" xlink:href="#linear-gradient-14"/>
    <linearGradient id="linear-gradient-112" x1="1.029" y1="-136.509" x2="0.28" y2="-136.42" xlink:href="#linear-gradient-97"/>
    <linearGradient id="linear-gradient-113" x1="0.877" y1="-661.032" x2="0.282" y2="-660.071" gradientUnits="objectBoundingBox">
      <stop offset="0" stop-color="#162e4f"/>
      <stop offset="0.143" stop-color="#182f59"/>
      <stop offset="1" stop-color="#2a3698"/>
    </linearGradient>
    <linearGradient id="linear-gradient-114" x1="0.973" y1="0.189" x2="0.168" y2="0.839" xlink:href="#linear-gradient-56"/>
    <linearGradient id="linear-gradient-115" x1="0.859" y1="-539.644" x2="0.275" y2="-538.875" xlink:href="#linear-gradient-56"/>
    <linearGradient id="linear-gradient-116" x1="0.141" y1="-0.357" x2="0.579" y2="0.711" xlink:href="#linear-gradient-97"/>
    <linearGradient id="linear-gradient-117" x1="0.813" y1="1.156" x2="0.437" y2="0.264" xlink:href="#linear-gradient-113"/>
    <linearGradient id="linear-gradient-118" x1="0.813" y1="-276.783" x2="0.29" y2="-277.243" xlink:href="#linear-gradient-14"/>
    <linearGradient id="linear-gradient-119" x1="0.905" y1="0.208" x2="0.201" y2="0.634" xlink:href="#linear-gradient-97"/>
    <linearGradient id="linear-gradient-120" x1="0.169" y1="0.04" x2="0.82" y2="1.178" xlink:href="#linear-gradient-97"/>
    <linearGradient id="linear-gradient-121" x1="0.977" y1="-992.76" x2="0.155" y2="-992.624" xlink:href="#linear-gradient-97"/>
    <linearGradient id="linear-gradient-122" x1="0.985" y1="-953.507" x2="0.163" y2="-953.376" xlink:href="#linear-gradient-97"/>
    <linearGradient id="linear-gradient-123" x1="0.949" y1="-356.24" x2="0.206" y2="-356.1" xlink:href="#linear-gradient-97"/>
    <linearGradient id="linear-gradient-124" y1="-781.771" x2="1" y2="-781.771" gradientUnits="objectBoundingBox">
      <stop offset="0" stop-color="#00006f"/>
      <stop offset="1" stop-color="#1a47bf"/>
    </linearGradient>
    <linearGradient id="linear-gradient-125" x1="0.23" y1="-3090.156" x2="1.241" y2="-3090.184" xlink:href="#linear-gradient-72"/>
    <linearGradient id="linear-gradient-126" x1="0.505" y1="-3101.145" x2="1.525" y2="-3101.268" xlink:href="#linear-gradient-72"/>
    <linearGradient id="linear-gradient-127" x1="0.149" y1="-3122.975" x2="1.159" y2="-3123.097" xlink:href="#linear-gradient-72"/>
    <linearGradient id="linear-gradient-128" x1="0.935" y1="-146.561" x2="0.25" y2="-146.584" xlink:href="#linear-gradient-71"/>
    <linearGradient id="linear-gradient-129" x1="0.198" y1="-465.41" x2="0.819" y2="-467.002" xlink:href="#linear-gradient-72"/>
    <linearGradient id="linear-gradient-130" x1="0.207" y1="-252.377" x2="1.388" y2="-253.718" xlink:href="#linear-gradient-72"/>
    <linearGradient id="linear-gradient-131" x1="0.981" y1="-525.784" x2="0.12" y2="-525.908" xlink:href="#linear-gradient-72"/>
    <linearGradient id="linear-gradient-132" x1="0" y1="-733.494" x2="1" y2="-733.494" xlink:href="#linear-gradient-72"/>
    <linearGradient id="linear-gradient-133" x1="0.568" y1="-1157.161" x2="0.484" y2="-1157.865" xlink:href="#linear-gradient-71"/>
    <linearGradient id="linear-gradient-134" x1="0.532" y1="-1146.063" x2="0.439" y2="-1146.649" xlink:href="#linear-gradient-71"/>
    <linearGradient id="linear-gradient-135" x1="0.372" y1="-1108.535" x2="0.679" y2="-1109.225" xlink:href="#linear-gradient-71"/>
    <linearGradient id="linear-gradient-136" x1="0.46" y1="0.712" x2="0.581" y2="0.15" xlink:href="#linear-gradient-71"/>
    <linearGradient id="linear-gradient-137" x1="0.326" y1="-387.933" x2="0.723" y2="-389.621" xlink:href="#linear-gradient-72"/>
    <linearGradient id="linear-gradient-138" x1="0.138" y1="-646.171" x2="0.679" y2="-647.078" xlink:href="#linear-gradient-72"/>
    <linearGradient id="linear-gradient-139" x1="0.253" y1="-463.762" x2="0.751" y2="-464.576" xlink:href="#linear-gradient-72"/>
    <linearGradient id="linear-gradient-140" x1="0.426" y1="-648.826" x2="0.745" y2="-649.886" xlink:href="#linear-gradient-72"/>
    <linearGradient id="linear-gradient-141" x1="0.916" y1="0.488" x2="0.138" y2="0.527" xlink:href="#linear-gradient-97"/>
    <linearGradient id="linear-gradient-142" x1="-0.117" y1="-971.317" x2="1.104" y2="-972.148" xlink:href="#linear-gradient-17"/>
    <linearGradient id="linear-gradient-143" x1="0.348" y1="-1223.285" x2="0.665" y2="-1223.946" xlink:href="#linear-gradient-17"/>
    <linearGradient id="linear-gradient-144" x1="0.319" y1="-1317.275" x2="0.69" y2="-1317.971" xlink:href="#linear-gradient-17"/>
    <linearGradient id="linear-gradient-145" x1="0" y1="-649.35" x2="1" y2="-649.35" xlink:href="#linear-gradient-17"/>
    <linearGradient id="linear-gradient-146" x1="0.266" y1="-458.725" x2="0.675" y2="-459.907" xlink:href="#linear-gradient-17"/>
    <linearGradient id="linear-gradient-147" x1="0.363" y1="-705.415" x2="0.659" y2="-706.831" xlink:href="#linear-gradient-17"/>
    <linearGradient id="linear-gradient-148" x1="0.716" y1="-1140.213" x2="0.25" y2="-1139.063" gradientUnits="objectBoundingBox">
      <stop offset="0" stop-color="#e6e7e8"/>
      <stop offset="1" stop-color="#bcbec0"/>
    </linearGradient>
    <linearGradient id="linear-gradient-149" x1="0.993" y1="0.221" x2="-0.021" y2="0.86" xlink:href="#linear-gradient-97"/>
    <linearGradient id="linear-gradient-150" x1="0.69" y1="-226.977" x2="0.443" y2="-226.665" xlink:href="#linear-gradient-71"/>
    <linearGradient id="linear-gradient-151" x1="0.91" y1="-2007.627" x2="0.242" y2="-2004.922" xlink:href="#linear-gradient-113"/>
    <linearGradient id="linear-gradient-152" x1="1.006" y1="0.335" x2="0.008" y2="0.987" xlink:href="#linear-gradient-56"/>
    <linearGradient id="linear-gradient-153" x1="0.816" y1="-3161.233" x2="0.366" y2="-3160.187" xlink:href="#linear-gradient-56"/>
    <linearGradient id="linear-gradient-154" x1="0.536" y1="-996.455" x2="0.406" y2="-997.384" xlink:href="#linear-gradient-56"/>
    <linearGradient id="linear-gradient-155" x1="0.494" y1="-487.079" x2="0.561" y2="-486.353" gradientUnits="objectBoundingBox">
      <stop offset="0" stop-color="#2a60b8"/>
      <stop offset="1" stop-color="#252f87"/>
    </linearGradient>
    <linearGradient id="linear-gradient-156" x1="0.537" y1="-501.759" x2="-0.214" y2="-502.635" xlink:href="#linear-gradient-113"/>
    <linearGradient id="linear-gradient-157" x1="0.987" y1="0.12" x2="0.025" y2="0.895" xlink:href="#linear-gradient-71"/>
    <linearGradient id="linear-gradient-158" x1="0.304" y1="-745.83" x2="0.738" y2="-747.098" gradientUnits="objectBoundingBox">
      <stop offset="0" stop-color="#ea3a3a"/>
      <stop offset="1" stop-color="#ffd820"/>
    </linearGradient>
    <linearGradient id="linear-gradient-159" x1="0.606" y1="-862.907" x2="0.399" y2="-861.868" xlink:href="#linear-gradient-72"/>
    <linearGradient id="linear-gradient-160" x1="0.643" y1="-1051.464" x2="0.407" y2="-1050.05" xlink:href="#linear-gradient-72"/>
    <linearGradient id="linear-gradient-161" x1="0.611" y1="-1755.268" x2="0.391" y2="-1754.17" xlink:href="#linear-gradient-72"/>
    <linearGradient id="linear-gradient-162" x1="0.541" y1="-2449.412" x2="0.494" y2="-2448.766" xlink:href="#linear-gradient-61"/>
    <linearGradient id="linear-gradient-163" x1="0.542" y1="-2452.599" x2="0.496" y2="-2451.966" xlink:href="#linear-gradient-61"/>
  </defs>
  <g id="Group_79" data-name="Group 79" transform="translate(865.963 854.315)">
    <g id="Ellipse_1" data-name="Ellipse 1" transform="translate(406.114 -854.315) rotate(40)" fill="#5995fd" stroke="#707070" stroke-width="1">
      <ellipse cx="619.5" cy="989.5" rx="619.5" ry="989.5" stroke="none"/>
      <ellipse cx="619.5" cy="989.5" rx="619" ry="989" fill="none"/>
    </g>
    <g id="OBJECTS" transform="translate(16 258.759)">
      <g id="Group_77" data-name="Group 77" transform="translate(59.925 55.19)">
        <g id="Group_38" data-name="Group 38" transform="translate(0 457.403)">
          <ellipse id="Ellipse_2" data-name="Ellipse 2" cx="500.123" cy="76.918" rx="500.123" ry="76.918" fill="url(#linear-gradient)"/>
          <ellipse id="Ellipse_3" data-name="Ellipse 3" cx="101.098" cy="19.281" rx="101.098" ry="19.281" transform="translate(54.267 123.443)" fill="url(#linear-gradient-2)"/>
          <path id="Path_2" data-name="Path 2" d="M403.811,461.272c0,6.049-31.884,10.954-71.217,10.954s-71.217-4.9-71.217-10.954,31.884-10.953,71.217-10.953S403.811,455.224,403.811,461.272Z" transform="translate(58.391 -280.527)" fill="url(#linear-gradient-3)"/>
          <path id="Path_3" data-name="Path 3" d="M719.117,436.07c0,4.187-17.572,7.581-39.246,7.581s-39.245-3.394-39.245-7.581,17.57-7.579,39.245-7.579S719.117,431.885,719.117,436.07Z" transform="translate(281.13 -293.347)" fill="url(#linear-gradient-4)"/>
        </g>
        <g id="Group_50" data-name="Group 50" transform="translate(110.397 116.103)">
          <path id="Path_4" data-name="Path 4" d="M216.176,161.541a6.732,6.732,0,0,0,5.159,2.956c7.66.771,12.272-1.814,12.272-1.814l-5.06-7.93-6.437,1.351Z" transform="translate(-78.554 -112.819)" fill="url(#linear-gradient-5)"/>
          <path id="Path_5" data-name="Path 5" d="M273.719,177.732s7.46,11.276,6.7,24.035-6.7,42.294-6.7,42.294l-17.887,3-4.8-20.392Z" transform="translate(-58.082 -99.323)" fill="url(#linear-gradient-6)"/>
          <path id="Path_6" data-name="Path 6" d="M268.327,148.718s.911,6.122-.489,7.722-12.3,5.4-12.3,5.4l.749-12.056Z" transform="translate(-55.433 -116.363)" fill="url(#linear-gradient-7)"/>
          <path id="Path_7" data-name="Path 7" d="M315.894,213.807c-3.24,6.586-7.576,28.249-13.657,50.291-1.349,4.841-2.375,10.527-3.346,16.194-.54,3.059,1.529,5.8,1.457,8.133-.091,2.286-2.268,3.652-1.332,4.967a13.46,13.46,0,0,1,1.817,2.843,6.7,6.7,0,0,1,.432,1.583,7.183,7.183,0,0,1-4.192,7.233c-12.973,5.237-78.4,16.086-94.069,9.591-25.1-10.381-31.489-18.335-28.664-38.811,3.94-28.645,30.967-70.713,43.381-83.309,20.28-20.567,35.3-20.819,48.151-23.626a70.6,70.6,0,0,1,19.287-1.3,180.779,180.779,0,0,1,19.74,2.321C323.559,172.962,322.749,199.862,315.894,213.807Z" transform="translate(-103.489 -105.354)" fill="url(#linear-gradient-8)"/>
          <path id="Path_8" data-name="Path 8" d="M297.073,305.05c-12.973,5.237-78.4,16.086-94.069,9.591-25.1-10.381-31.489-18.335-28.664-38.811,3.94-28.645,30.967-70.713,43.381-83.309,20.28-20.567,35.3-20.819,48.151-23.626a70.6,70.6,0,0,1,19.287-1.3c2.573,1.548,3.924,2.519,3.924,2.519l-9.591,25.856s-1.224,4.194-6.586,3.887-8.367-1.494-11.516.594c-3.149,2.1-6.046-1.043-12.757,5.254-6.73,6.3-11.911,37.1-20.224,44.534s-11.48,12.073-13.046,18.514,6.856,22.421,25.749,24.111,39.175-5.514,40.939-4.165c1.781,1.349-7.31,5.622-20.354,7.314-22.522,2.921-28.669-.346-32.951.444-4.264.775-2.244,4.5,5.744,7.2,7.972,2.7,22.591,1.649,36.878.857s28.415-2.7,29.9-6.706A7.183,7.183,0,0,1,297.073,305.05Z" transform="translate(-103.489 -105.354)" opacity="0.3" fill="url(#linear-gradient-9)" style="mix-blend-mode: multiply;isolation: isolate"/>
          <path id="Path_9" data-name="Path 9" d="M538.675,397.9l-13.459,6.335-7.449,3.508-13.73-4.732s-52.612-34.6-75.355-49.807c-11.768-7.862-22.1-27.188-22.1-27.188s-79.944,6.765-110.712,4.121c-30.751-2.627-33.288-.665-33.288-.665s-23.535,11.246-54.735-.414c-5.74-2.141-15.222-4.967-23.68-9.519-5.308-2.843-10.221-6.368-13.567-10.813-15.421-20.513-15.457-54.124-15.457-54.124.738-20.459,76.921,6.783,102.491,8.529,14.519.989,53.389-7.406,53.389-7.406s91.69,6.633,113.876,17.843C447.106,284.776,538.675,397.9,538.675,397.9Z" transform="translate(-114.398 -58.628)" fill="url(#linear-gradient-10)"/>
          <path id="Path_10" data-name="Path 10" d="M514.477,395.364l-7.449,3.508L493.3,394.14s-52.612-34.6-75.355-49.807c-11.768-7.862-22.1-27.188-22.1-27.188s-79.944,6.765-110.712,4.121c-30.751-2.627-33.288-.665-33.288-.665s-23.535,11.246-54.735-.414c-5.74-2.141-15.222-4.967-23.68-9.519l10.191-48.545a122.618,122.618,0,0,1,10.659,19.118c4.013,9.172,13.351,17.008,22,22.267,9.9,6.013,22.588,4.641,33.778,2.556,11.211-2.106,13.9-2.262,24.7-4.656,10.8-2.411,14.994-4.611,27.283-5.224,12.308-.63,16.806,4.138,37.5,3.706s22.1-4.93,33.234-2.23,23.445,1.2,32.442,6.91c9,5.686,44.659,35.969,57.561,47.07s39.226,32.081,44.1,35.537A35.975,35.975,0,0,1,514.477,395.364Z" transform="translate(-103.659 -49.758)" opacity="0.19" fill="url(#linear-gradient-11)" style="mix-blend-mode: multiply;isolation: isolate"/>
          <path id="Path_11" data-name="Path 11" d="M183.032,249.637s28.8,14.672,22.792,70.175c-4.773,44.056-10.046,103.747-10.046,103.747H166.343l-6.264-35.073s-13.173-96.036-13.333-112.009C146.439,246.038,177.245,243.34,183.032,249.637Z" transform="translate(-119.333 -58.715)" fill="url(#linear-gradient-12)"/>
          <path id="Path_12" data-name="Path 12" d="M230.874,163.294s-1.519,6.24-3.808,9.97c-1.57,2.557-4.114,13.114,6.224,19.649,11.753,7.429,22.324,6.4,27.262,2.867,3.467-2.486.97-10.8,3.013-12.475S230.874,163.294,230.874,163.294Z" transform="translate(-73.02 -107.802)" fill="url(#linear-gradient-13)"/>
          <path id="Path_13" data-name="Path 13" d="M221.807,164.882s1.8,23.583,14.114,36.472,32.142,10.03,39.111,1.7c6.673-7.975,4.152-16.483,3.852-25.257s1.365-29.065-3.987-34.35C263.786,132.479,219.405,134.718,221.807,164.882Z" transform="translate(-75.302 -123.002)" fill="url(#linear-gradient-14)"/>
          <path id="Path_14" data-name="Path 14" d="M245.558,150.806s2.692,9.529-4.325,12.638c-1.644,2.027-2.2,13.516-2.2,13.516l-2.659.627s-1.752-8.14-5.613-10.562c-3.987-2.5-7.986.744-7.986.744s-3.476-5.406-3.341-9.192S245.558,150.806,245.558,150.806Z" transform="translate(-76.645 -115.137)" fill="url(#linear-gradient-15)"/>
          <path id="Path_15" data-name="Path 15" d="M228.807,161.08s-4.64-3.368-6.981-.262c-2.816,3.737,1.378,14.583,5.737,16.611s6.387-1.956,6.083-5.287S231.8,163.485,228.807,161.08Z" transform="translate(-75.772 -110.029)" fill="url(#linear-gradient-16)"/>
          <g id="Group_44" data-name="Group 44" transform="translate(138.884 35.952)">
            <g id="Group_39" data-name="Group 39" transform="translate(42.605 25.932)">
              <path id="Path_16" data-name="Path 16" d="M245.334,194.91l-1.522-.449a68.717,68.717,0,0,0,2.165-26.894l1.568-.246A70.5,70.5,0,0,1,245.334,194.91Z" transform="translate(-243.812 -167.321)" fill="url(#linear-gradient-17)"/>
            </g>
            <g id="Group_40" data-name="Group 40" transform="translate(63.942 23.692)">
              <path id="Path_17" data-name="Path 17" d="M258.686,191.242l-1.432-.687A43.442,43.442,0,0,0,261.36,166.2l1.56-.294C263.011,166.394,265.07,177.921,258.686,191.242Z" transform="translate(-257.254 -165.91)" fill="url(#linear-gradient-18)"/>
            </g>
            <g id="Group_41" data-name="Group 41" transform="translate(15.133 26.669)">
              <path id="Path_18" data-name="Path 18" d="M256.137,195.211a39.657,39.657,0,0,1-13.429-2.137c-4.206-1.541-6.079-4.284-7.891-6.937l-.448-.654c-3.456-5-7.821-12.351-7.865-12.424l1.365-.81c.044.073,4.383,7.378,7.806,12.332l.452.66c1.746,2.559,3.4,4.975,7.125,6.343,12,4.4,29.835,1.3,34.392-4.219,3.167-3.84,5.514-19.424,5.538-19.581l1.57.233c-.1.659-2.438,16.181-5.884,20.357C275.582,192.363,265.923,195.211,256.137,195.211Z" transform="translate(-226.505 -167.785)" fill="url(#linear-gradient-19)"/>
            </g>
            <g id="Group_42" data-name="Group 42" transform="translate(1.981 15.98)">
              <path id="Path_19" data-name="Path 19" d="M263.434,182.323h-.214c-24.519-.027-36.767-6.829-38.048-8.749-1.016-1.524-6.711-11.308-6.952-11.724l1.371-.8c.059.1,5.913,10.159,6.9,11.641.633.951,11.967,8.016,36.729,8.043h.211c14.929,0,20.594-1.79,21.518-2.484,2.756-2.065,3.833-9.751,4.018-12.537l1.584.1c-.029.44-.752,10.781-4.649,13.7C284.175,180.816,277.256,182.323,263.434,182.323Z" transform="translate(-218.219 -161.051)" fill="url(#linear-gradient-20)"/>
            </g>
            <g id="Group_43" data-name="Group 43">
              <path id="Path_20" data-name="Path 20" d="M262.1,177.6c-12.965,0-27.8-1.768-39.089-6.335-5.613-2.271-6.024-9.47-6.038-9.775l1.586-.078c0,.065.383,6.494,5.048,8.381,25.621,10.362,64.178,5.738,66.156,1.581a11.3,11.3,0,0,0-2.322-1.841c-2.962-1.97-1.222-14.692-.619-18.545l1.568.246c-1.162,7.414-1.519,16.013-.071,16.976,2.767,1.841,3.251,2.7,3.125,3.421a1.006,1.006,0,0,1-.354.616C289.151,175.31,276.833,177.6,262.1,177.6Z" transform="translate(-216.971 -150.984)" fill="url(#linear-gradient-21)"/>
            </g>
          </g>
          <path id="Path_21" data-name="Path 21" d="M294.371,167.352c-1.386.4-18.264-3.725-43.005,0-22.581,3.4-34.024,10.67-34.024,10.67-3.743,1.4-.757-5.759-.9-8.4-1.817-34.8,26.54-43.112,45.775-40.97a43.071,43.071,0,0,1,6.118,1.1c19.829,5.092,21.772,28.988,21.772,28.988C297.376,160.5,295.738,166.955,294.371,167.352Z" transform="translate(-78.982 -128.335)" fill="url(#linear-gradient-22)"/>
          <path id="Path_22" data-name="Path 22" d="M307.5,244.891v15.294s-9.556,4.175-22.24,8.925c-17.2,6.441-40.18,13.962-52.864,13.584-22.043-.665-26.054-13.243-30.157-36.292-4.8-26.991-3.743-52.469,3.743-60.4a22.372,22.372,0,0,1,12.164-6.154c6.711-1.1,14.2,1.008,18.73,10.184,8.835,17.868,10.221,56.553,10.221,56.553Z" transform="translate(-88.453 -98.238)" fill="url(#linear-gradient-23)"/>
          <path id="Path_23" data-name="Path 23" d="M285.258,269.012c-17.2,6.441-40.18,13.962-52.864,13.584-22.043-.665-26.054-13.243-30.157-36.292-4.8-26.991-3.743-52.469,3.743-60.4a22.372,22.372,0,0,1,12.164-6.154s-5.668,4.354-8.367,14.845c-2.7,10.508.9,19.954,0,35.915-.9,15.978,2.7,24.04,5.991,33.954,3.311,9.914,2.322,11.1,10.311,12.306s18.478-.989,27.332-2.735c8.852-1.763,28-8.654,28-8.654Z" transform="translate(-88.453 -98.14)" opacity="0.58" fill="url(#linear-gradient-24)"/>
          <path id="Path_24" data-name="Path 24" d="M333.815,238.806c-2.016.9-12.47,3.94-15.853,4.283-1.637.162-6.316.378-10.687.557-4.606.2-8.871.343-8.871.343l-25.424-1.476-4.751-21.538s23.554-20.44,29.311-23.337c4.049-2.016,8.764.233,9.068,4.66.162,2.429-1.043,6.513-.071,7.935a23.237,23.237,0,0,0,3.527,3.76c.9.756,9.9-.827,11.246-1.133,1.349-.289,5.127-2.267,6.586-2.087,2.554.306,4.732,1.71,4.6,4.049a.054.054,0,0,1-.017.035,6.309,6.309,0,0,1-1.421,3.311c-1.567,2.087-11.1,7.449-13.514,8.349-1.475.557-8.583,1.8-13.783,2.681-3.221.522-5.7.917-5.7.917s14,.521,15.853.63c1.835.108,13.459-2.214,16.3-2.952,2.752-.719,8.2.11,9.483,2.879h.017a2.274,2.274,0,0,1,.125.324C341.588,236.162,335.849,237.906,333.815,238.806Z" transform="translate(-47.982 -88.069)" fill="url(#linear-gradient-25)"/>
          <path id="Path_25" data-name="Path 25" d="M320.087,208.21a6.309,6.309,0,0,1-1.421,3.311c-1.567,2.087-11.1,7.449-13.514,8.349-1.475.557-8.583,1.8-13.783,2.681l-2.033-1.854s13.189-2.556,15.367-2.86c2.178-.289,9.087-4.949,11.48-6.064A10.693,10.693,0,0,0,320.087,208.21Z" transform="translate(-35.586 -81.422)" opacity="0.5" fill="url(#linear-gradient-26)" style="mix-blend-mode: multiply;isolation: isolate"/>
          <path id="Path_26" data-name="Path 26" d="M319.443,226.307c-2.016.9-12.47,3.94-15.852,4.283-1.637.162-6.316.378-10.687.557l-.2-3.1s8.192-.556,11.18-1.6c2.968-1.044,9.5-3.743,12.2-4.427,2.7-.665,3.76,0,3.76,0s2.2-.719,3.725-1.332a3.391,3.391,0,0,0,1.764-2.519h.017a2.27,2.27,0,0,1,.125.324C327.216,223.663,321.477,225.407,319.443,226.307Z" transform="translate(-33.61 -75.57)" opacity="0.5" fill="url(#linear-gradient-27)" style="mix-blend-mode: multiply;isolation: isolate"/>
          <path id="Path_27" data-name="Path 27" d="M336.091,227.808c-1.187,2.159-14.987,9.519-17.83,10.418-2.862.9-26.542,2.7-26.542,2.7l-2.986-.883-15.313-4.516s6.748-7.2,13.8-7.2c7.035,0,8.024-.522,8.024-.522s15.2-.54,19.7-1.584,12.541-5.308,16.5-4.8a5.945,5.945,0,0,1,4.067,2.3A3.864,3.864,0,0,1,336.091,227.808Z" transform="translate(-44.933 -73.688)" fill="url(#linear-gradient-28)"/>
          <path id="Path_28" data-name="Path 28" d="M330.426,226.954c-1.187,2.159-14.987,9.519-17.83,10.418-2.862.9-26.542,2.7-26.542,2.7l-2.986-.883c1.151-1.852,2.789-4.138,2.789-4.138l7.646-.63s5.291-.162,7.378-.4c2.07-.216,7.756-2.141,10.724-2.644,2.987-.5,5.686.341,6.694.233,1.025-.108,8.222-4.5,9.843-5.686a4.091,4.091,0,0,0,1.637-3.1.194.194,0,0,0,.073.036A3.864,3.864,0,0,1,330.426,226.954Z" transform="translate(-39.267 -72.834)" opacity="0.5" fill="url(#linear-gradient-29)" style="mix-blend-mode: multiply;isolation: isolate"/>
          <path id="Path_29" data-name="Path 29" d="M326.448,234.839c-1.243,1.8-13.927,7-16.483,7.54-2.573.54-23.41.035-23.41.035l-2.644-1.079L271.063,236.1s6.514-5.686,12.668-5.073,7.052.251,7.052.251,13.333.865,17.346.343,11.408-3.527,14.826-2.754a5.115,5.115,0,0,1,3.708,3.113A3.109,3.109,0,0,1,326.448,234.839Z" transform="translate(-46.318 -69.366)" fill="url(#linear-gradient-30)"/>
          <path id="Path_30" data-name="Path 30" d="M321.694,233.641c-1.243,1.8-13.927,7-16.483,7.54-2.573.54-23.41.035-23.41.035l-2.644-1.079c.287-.468.486-.773.486-.773l3.976-.073s18.894.162,20.927,0c2.014-.143,11.173-4.337,13.783-5.4a6.846,6.846,0,0,0,3.581-3.114A3.109,3.109,0,0,1,321.694,233.641Z" transform="translate(-41.564 -68.167)" opacity="0.5" fill="url(#linear-gradient-31)" style="mix-blend-mode: multiply;isolation: isolate"/>
          <path id="Path_31" data-name="Path 31" d="M278.253,158.395c-26.345-3.365-41.813.287-41.813.287-2.311-12.948.686-19.954,4.411-24.392a15.422,15.422,0,0,1,15.573-4.9l.057.014C276.31,134.5,278.253,158.395,278.253,158.395Z" transform="translate(-67.129 -127.997)" opacity="0.3" fill="url(#linear-gradient-32)" style="mix-blend-mode: screen;isolation: isolate"/>
          <g id="Group_45" data-name="Group 45" transform="translate(185.597 112.671)">
            <path id="Path_32" data-name="Path 32" d="M328.517,244.113a2.788,2.788,0,0,1-1.386,1.762c-.36.181-2.7.54-4.175.954-4.283,1.187-11.6,3.383-14.178,3.221-3.438-.251-15.475-1.278-15.475-1.278l.071.019a71.746,71.746,0,0,0,10.689,2.735c4.337.594,13.945-1.53,15.635.954a2.274,2.274,0,0,1,.36.81c.522,2.1-2.483,3.832-2.483,3.832-4.913,3.887-11.768,4.93-15.691,4.1-13.279-2.825-27.98-5.435-29.959-4.8-2.771.9-14.879,6.532-18.029,4.714-5.327-3.059-8.656-18.011-7.125-27.349,1.133-6.838,15.078-4.8,18.335-6.6,1.673-.936,5.092-7.594,9.051-14.143.035-.054.054-.09.054-.09,3.652-6.027,7.737-11.965,11.335-13.172,7.486-2.519,9.591,6.119,11.084,6.424,0,0,5.4,4.948,7.5,5.092s8.565-1.043,12.811-.306a6.211,6.211,0,0,1,3.9,2.052.206.206,0,0,1,.037.071,4.063,4.063,0,0,1,.648,4.175c-.756,1.2-13.081,5.614-17.256,6.064a128.534,128.534,0,0,0-12.649,2.448c-.036,0-.054.017-.09.017,0,0,10.2.181,13.045,0s17.383-1.943,20.692,1.062a5.882,5.882,0,0,1,1.836,2.752v.019a3.014,3.014,0,0,1-2.357,3.832c-2.465.684-11.624,3.456-16.122,3.76-4.5.289-16.194.289-16.194.289a.357.357,0,0,1,.125.017c1.314.125,11.822,1.187,15.475,1.187,3.886,0,14.521-1.133,17.994.522A4.088,4.088,0,0,1,328.517,244.113Z" transform="translate(-246.4 -199.316)" fill="url(#linear-gradient-33)"/>
            <path id="Path_33" data-name="Path 33" d="M317.577,252.044c-4.913,3.887-11.768,4.93-15.691,4.1-13.279-2.825-27.98-5.435-29.959-4.8-2.771.9-14.879,6.532-18.029,4.714-5.327-3.059-8.656-18.011-7.125-27.349,1.133-6.838,15.078-4.8,18.335-6.6,1.673-.936,5.092-7.594,9.051-14.143-.576,1.187-6.424,13.621-2.862,23.9,3.743,10.8,3.881,15.089,12.427,16.943s16.694,4.494,19.624,4.76c5.567.506,15.762-2.744,16.711-5.348C320.582,250.317,317.577,252.044,317.577,252.044Z" transform="translate(-246.4 -194.239)" opacity="0.8" fill="url(#linear-gradient-34)" style="mix-blend-mode: multiply;isolation: isolate"/>
            <path id="Path_34" data-name="Path 34" d="M312.393,227.538a2.788,2.788,0,0,1-1.386,1.762c-.36.181-2.7.54-4.175.954-4.283,1.187-11.6,3.383-14.178,3.221-3.438-.251-15.475-1.278-15.475-1.278s-3.157-.383-3.3-1.194c-.144-.827.181-1.206,4.086-.937,3.9.289,10.84,1.489,15.481,1.237,4.643-.233,5.767-.686,11.021-1.856C309.6,228.3,311.079,228.49,312.393,227.538Z" transform="translate(-230.276 -182.741)" opacity="0.8" fill="url(#linear-gradient-35)" style="mix-blend-mode: multiply;isolation: isolate"/>
            <path id="Path_35" data-name="Path 35" d="M308.93,222.256c-2.465.684-11.624,3.456-16.122,3.76-4.5.289-16.194.289-16.194.289-2.213-.216-3.706-.594-3.149-1.26.557-.684,1.278-.611,7.378-.756,6.118-.144,10.994-.071,13.692-.414a122.1,122.1,0,0,0,14.611-3.491c1.925-.756,2.122-1.781,2.141-1.96A3.014,3.014,0,0,1,308.93,222.256Z" transform="translate(-230.573 -188.094)" opacity="0.8" fill="url(#linear-gradient-36)" style="mix-blend-mode: multiply;isolation: isolate"/>
            <path id="Path_36" data-name="Path 36" d="M305.544,212.181c-.756,1.2-13.081,5.614-17.256,6.064a128.532,128.532,0,0,0-12.649,2.448c-.036,0-.054.017-.09.017-2.267.522-2.5-1-.843-1.448s12.16-2.727,15.543-3.7c3.365-.971,11.246-3.454,13.4-4.57a2.252,2.252,0,0,0,1.243-2.987A4.063,4.063,0,0,1,305.544,212.181Z" transform="translate(-230.408 -194.213)" opacity="0.8" fill="url(#linear-gradient-37)" style="mix-blend-mode: multiply;isolation: isolate"/>
          </g>
          <g id="Group_46" data-name="Group 46" transform="translate(10.605 175.883)">
            <path id="Path_37" data-name="Path 37" d="M175.348,301.378s11.456-1.2,13.113-5.249c0,0,1.243,5.778-.875,8.326s-12.238,3.971-12.238,3.971Z" transform="translate(-113.138 -205.669)" fill="url(#linear-gradient-38)"/>
            <path id="Path_38" data-name="Path 38" d="M175.459,276.534s10.856-1.2,12.513-5.249a8.824,8.824,0,0,1,.743,8.341c-1.186,3.092-13.256,3.956-13.256,3.956Z" transform="translate(-113.073 -220.26)" fill="url(#linear-gradient-39)"/>
            <path id="Path_39" data-name="Path 39" d="M171.281,340.483s11.419,1.04,13.838-2.6c0,0,1.424,4.975-1.529,7.87-2.365,2.321-13.691,1.645-13.691,1.645Z" transform="translate(-116.338 -181.149)" fill="url(#linear-gradient-40)"/>
            <path id="Path_40" data-name="Path 40" d="M200.829,327.8c-.019,1.386-.036,2.808-.073,4.211-.054,3.724-.108,7.5-.143,11.281-.306,31.129-3.24,63.391-5.092,72.82v.017c-.037.2-.073.4-.108.559a7.588,7.588,0,0,1-.649,2.068c-1.978,2.61-7.018-.054-10.957.54-4.732.721-9.23,3.348-11.587,1.962-3.941-2.321-19.667-49.446-29.005-90.021-1.476-6.4-2.789-12.649-3.868-18.532-3.51-19-4.589-34.188-.846-38.74,5.343-6.532,5.379-23.265,9.716-28.088a20.989,20.989,0,0,1,13.153-6.549h.019a22.873,22.873,0,0,1,5.325-.073c12.559-.125,14.7,10.545,20.764,20.4,1.925,3.1,8.764,9.9,10.473,13.387C201.71,280.731,201.279,302.845,200.829,327.8Z" transform="translate(-136.156 -239.14)" fill="url(#linear-gradient-41)"/>
            <path id="Path_41" data-name="Path 41" d="M187.527,306.847c-.724,1.754,1.743,62.864-.394,62.921-2.708.07-3.037-59.323-4.724-61.4-3.308-4.081-9.24-1.427-9.9,2.494-.676,4.029,10.011,66.526,7.781,66.7-2.5.194-10.7-63.356-14.529-67.226-2.362-2.383-9.816-2.643-8.322,5.76,1.494,8.386,16.616,66.15,19.286,67.732,3.037,1.8,5.918-.014,10.291.562,2.556.324,5.475.908,5.781.5a7.587,7.587,0,0,1-.649,2.068c-1.978,2.61-7.018-.054-10.957.54-4.732.721-9.23,3.348-11.587,1.962-3.941-2.321-19.667-49.446-29.005-90.021,3.868-1.654,7.538-2.9,7.538-2.9L180.3,293.3l17.922,2.7c-.019,1.386-.037,2.808-.073,4.211C196.67,300.979,189.383,302.348,187.527,306.847Z" transform="translate(-133.545 -207.333)" opacity="0.3" fill="url(#linear-gradient-42)" style="mix-blend-mode: multiply;isolation: isolate"/>
            <path id="Path_42" data-name="Path 42" d="M185.7,308.245c-.9.143-21.735,3.886-26.234,3.6-4.5-.306-11.1,2.7-19.2.9a4.176,4.176,0,0,0-.917-.108c-3.51-19-4.589-34.188-.846-38.74,5.343-6.532,5.379-23.265,9.716-28.088a20.99,20.99,0,0,1,13.153-6.549h.019s-8.529,3.67-9.879,13.351-1.8,40.035,2.7,47.9c.876,1.532,8.4,2.633,10.683-.778,1.267-1.889-3.594-41.938-1.9-43.413,1.673-1.457,5.775,40.108,8.654,43.292,1.908,2.108,8.886.543,9.1-1.571.451-4.417-4.73-33.283-3.256-35.189,1.457-1.925,6.686,32.157,7.864,34.3,1.86,3.373,6.633,3.976,7.391,3.814C193.5,300.815,186.6,308.083,185.7,308.245Z" transform="translate(-136.156 -239.07)" opacity="0.3" fill="url(#linear-gradient-43)" style="mix-blend-mode: multiply;isolation: isolate"/>
            <path id="Path_43" data-name="Path 43" d="M202.813,297.264a10.012,10.012,0,0,1-.719,8.637.018.018,0,0,1-.019.017,2.51,2.51,0,0,1-.251.414,4.905,4.905,0,0,1-2.646,1.854c-.521.162-1.133.341-1.852.557-.468.125-.991.287-1.548.432q-1.188.35-2.646.7c-.3.091-.611.162-.935.252-.954.233-1.979.486-3.076.719-.468.127-.971.235-1.476.343-.144.035-.27.054-.414.089-.719.162-1.438.306-2.194.468-.738.144-1.476.287-2.251.432-.575.108-1.151.216-1.744.324-2.357.414-4.859.81-7.486,1.133-.648.09-1.313.162-1.979.235-.251.035-.5.071-.756.089-.935.108-1.889.2-2.843.27-1.906.181-3.832.306-5.811.4-.594.035-1.187.054-1.781.071a106.917,106.917,0,0,1-16.2-.684s-3.687-1.025-4.264-3.329c-1.152-4.533-.125-7.268-.125-7.268a19.9,19.9,0,0,1-1.764-4.787,14.054,14.054,0,0,1,.089-5.776,15.192,15.192,0,0,1-1.548-4.965c-.521-3.311,1.3-4.768,1.3-4.768s3.689,1.116,17.7.306c1.368-.09,2.843-.181,4.427-.306,17.7-1.368,36.4-4.751,40.88-6.172,1.4,2.1,2.754,6.3,1.71,9.446C202.6,286.4,205.979,290.193,202.813,297.264Z" transform="translate(-135.963 -216.933)" fill="url(#linear-gradient-44)"/>
            <path id="Path_44" data-name="Path 44" d="M202.075,303.635a2.51,2.51,0,0,1-.251.414,4.905,4.905,0,0,1-2.646,1.854c-.521.162-1.133.341-1.852.557-.468.125-.991.287-1.548.432q-1.188.35-2.646.7c-.3.09-.611.162-.935.252-.954.233-1.979.486-3.076.719-.468.127-.971.235-1.476.343-.144.035-.27.054-.414.089-.7.162-1.438.306-2.194.468-.738.144-1.476.287-2.251.432-.575.108-1.151.216-1.744.324-2.357.414-4.859.81-7.486,1.133-.648.09-1.313.162-1.979.235-.251.035-.5.071-.756.089-.935.108-1.889.2-2.843.27-1.906.181-3.832.306-5.811.4-.594.035-1.187.054-1.781.071a106.909,106.909,0,0,1-16.2-.684s-3.687-1.025-4.264-3.329c-1.152-4.533-.125-7.268-.125-7.268a19.9,19.9,0,0,1-1.764-4.787,14.053,14.053,0,0,1,.089-5.776,15.192,15.192,0,0,1-1.548-4.965c-.521-3.311,1.3-4.768,1.3-4.768s3.689,1.116,17.7.306c-.179.341-3.887,3.13-.883,6.532,1.71,1.943,16.321,1.006,22.259,0,6.819-1.152,14.268-2.916,14.16-1.908-.09,1.008-7.3,3.13-20.062,4.391-8.187.792-13.711.864-14.648,3.4-.935,2.556.648,5.921,3.221,6.5,2.592.559,17.221-.233,26.775-2.248,9.554-2.033,11.587-2.933,11.354-1.8-.216,1.116-8.6,3.365-15.043,4.606-6.424,1.241-16.9,2.141-18.911,3.491-2.033,1.349-.716,5.43,6.524,5.356C176.249,309.4,199.052,305.308,202.075,303.635Z" transform="translate(-135.963 -214.65)" opacity="0.3" fill="url(#linear-gradient-45)" style="mix-blend-mode: multiply;isolation: isolate"/>
          </g>
          <g id="Group_47" data-name="Group 47" transform="translate(295.808 201.329)">
            <path id="Path_45" data-name="Path 45" d="M347.688,310.094s-6.594,8.722-14.854,11.667c-1.037.37,2.348,5.924,7.1,4.714s14.54-11.668,14.54-11.668Z" transform="translate(-305.957 -222.913)" fill="url(#linear-gradient-46)"/>
            <path id="Path_46" data-name="Path 46" d="M332.665,295.153s-7.937,7.629-16.581,9.1c-1.086.186,1.508,5.67,4.521,6.592,4.692,1.435,17.934-9.025,17.934-9.025Z" transform="translate(-315.832 -231.688)" fill="url(#linear-gradient-47)"/>
            <path id="Path_47" data-name="Path 47" d="M376.335,329.428s-2.4,7.122-12.954,13.037c-.959.538,2.352,5.878,7.108,4.668s14.54-11.668,14.54-11.668Z" transform="translate(-288.003 -211.558)" fill="url(#linear-gradient-48)"/>
            <path id="Path_48" data-name="Path 48" d="M432.124,386.563h-.017c-4.229,1.727-10.76,2.9-15.151,1.854a9.008,9.008,0,0,1-2.122-.755c-6.279-3.383-93.98-66.575-98.028-78.272-3.706-10.7,8.4-24.794,8.079-33.305a1.472,1.472,0,0,1-.019-.2,6.3,6.3,0,0,0-.413-2.033c-3.149-8.1,3.148-17.992,3.148-17.992,3.959-11.516,108.123,125.035,108.68,127.212C436.568,384.171,434.8,385.484,432.124,386.563Z" transform="translate(-315.675 -255.171)" fill="url(#linear-gradient-49)"/>
            <path id="Path_49" data-name="Path 49" d="M432.106,379.477c-4.229,1.727-10.76,2.9-15.151,1.854a9.006,9.006,0,0,1-2.122-.756c-6.279-3.383-93.98-66.575-98.028-78.272-3.706-10.7,8.4-24.794,8.079-33.305.162,1.187,1.114,7.7,3.652,10.148,2.825,2.7,18.335,17.31,20.926,17.994,2.592.667,5.4-4.657,4.2-8.33-.343-1.049-19.267-19.418-18.251-21.484.8-1.617,21.016,19.343,24.849,23.626,3.832,4.264,17.04,16.751,17.04,16.751l2.554-1.889s-1.489,3.576-.508,5.946c.587,1.424,47.826,54.477,46.589,56.5-1.538,2.516-46.848-50.394-48.207-50.888-4.124-1.5-7.156,3.533-6.148,6.448s50.989,53.605,53.689,54.721A19.03,19.03,0,0,0,432.106,379.477Z" transform="translate(-315.675 -248.085)" opacity="0.3" fill="url(#linear-gradient-50)" style="mix-blend-mode: multiply;isolation: isolate"/>
            <path id="Path_50" data-name="Path 50" d="M374.6,297.959c.071.611-.449,1.781-1.457,3.329l-.037.035c-4.643,7.126-19.073,22.007-28.394,26.181,0,0-6.081-.522-7.592-4.175,0,0-5.291-1.457-5.975-5,0,0-5.5-2.646-4.984-6.01,0,0,6.622-4.086,15.313-12.921a54.98,54.98,0,0,0,5.56-6.765c5.343-7.575,8.672-15.257,10.508-15.33,2.375-.108,5.829,6.046,5.829,6.046a11.693,11.693,0,0,1,6.227,7.054A9.9,9.9,0,0,1,374.6,297.959Z" transform="translate(-309.788 -242.174)" fill="url(#linear-gradient-51)"/>
            <path id="Path_51" data-name="Path 51" d="M373.1,297.634c-4.643,7.125-19.073,22.007-28.394,26.181,0,0-6.081-.522-7.592-4.175,0,0-5.291-1.457-5.975-5,0,0-5.5-2.646-4.984-6.01,0,0,6.622-4.086,15.313-12.921a54.975,54.975,0,0,0,5.56-6.765s-1.548,4.1,1.151,5.56,6.424-3.456,8.583-6.441c2.178-3,3.411-5.083,3.933-4.327.522.738-4.186,7.03-6.4,9.941-1.867,2.457-1.392,4.232-.864,4.732,1.073,1.013,4.3.606,5.74-.613,5.965-5.033,8.484-10.164,9.225-9.648.762.529-.984,3.994-7.657,11.341-2.311,2.546-4.416,5.143-2.819,7.125C360.511,309.826,367.292,304.76,373.1,297.634Z" transform="translate(-309.788 -238.486)" opacity="0.3" fill="url(#linear-gradient-52)" style="mix-blend-mode: multiply;isolation: isolate"/>
          </g>
          <path id="Path_52" data-name="Path 52" d="M235,221.8l-2.735,1.181a46.538,46.538,0,0,0-5.619,2.916c-.467.319-.979.583-1.406.937s-.914.627-1.3.99a15.015,15.015,0,0,0-1.152,1.01c-.34.349-.716.641-.983.978s-.556.619-.8.881c-.217.284-.408.533-.564.738l-.53.646s.063-.292.21-.808a8.154,8.154,0,0,1,.849-2.06,7.7,7.7,0,0,1,.811-1.262,8.781,8.781,0,0,1,1.084-1.284,11.058,11.058,0,0,1,1.327-1.214c.464-.4,1-.714,1.5-1.078a18.249,18.249,0,0,1,3.254-1.564,16.986,16.986,0,0,1,3.019-.81A12.145,12.145,0,0,1,235,221.8Z" transform="translate(-76.36 -73.456)" fill="url(#linear-gradient-53)"/>
          <g id="Group_48" data-name="Group 48" transform="translate(0 360.503)">
            <path id="Path_53" data-name="Path 53" d="M130.607,393.048s-1.649,3.113,0,5.137,7.5,5.173,19.3,4.722,32.051-7.2,39.024-9.333,20.13-7.2,22.6-9.9.787-6.971-.787-7.984" transform="translate(-129.241 -343.56)" fill="url(#linear-gradient-54)"/>
            <path id="Path_54" data-name="Path 54" d="M212.508,391.184c-1.259,5.6-26.432,12.649-41.24,17.579-14.97,5.021-34.043,4.84-39.567-.2-6.8-6.227,3.059-17.508,15.114-27.962,4.551-3.922,9.3-7.792,13.44-11.067,6.838-5.416,12.038-9.248,12.038-9.248s1.943-4,8.457-4.66a39.321,39.321,0,0,1,15.041,1.494c2.5.846,6.083,1.151,9.3,3.167,1.906,1.187,4.984,7.845,6.694,15.384C212.993,380.946,213.533,386.651,212.508,391.184Z" transform="translate(-129.475 -355.449)" fill="url(#linear-gradient-55)"/>
            <path id="Path_55" data-name="Path 55" d="M212.508,385.971c-1.259,5.6-26.432,12.649-41.24,17.579-14.97,5.021-34.043,4.84-39.567-.2-6.8-6.227,3.059-17.508,15.114-27.962,4.551-3.922,9.3-7.792,13.44-11.067,0,0-13.5,16.026,3.276,20.256,17.843,4.5,36.562-9.513,41.223-8.848s5.6-2,7.035-5.271C212.993,375.733,213.533,381.438,212.508,385.971Z" transform="translate(-129.475 -350.236)" opacity="0.4" fill="url(#linear-gradient-56)" style="mix-blend-mode: multiply;isolation: isolate"/>
          </g>
          <g id="Group_49" data-name="Group 49" transform="translate(387.862 336.133)">
            <path id="Path_56" data-name="Path 56" d="M377.366,359.043s-1.611,1.349-.936,4.273,28.9,10.572,50.381,12.708,27.327,1.911,31.488.787,4.949-4.948,2.249-7.31" transform="translate(-372.394 -328.969)" fill="url(#linear-gradient-57)"/>
            <path id="Path_57" data-name="Path 57" d="M456.573,385.572c-6.532,1.079-31-.989-51.461-5.4-17.759-3.87-26.307-6.532-27.332-9.357-1.854-5.164-5.433-16.841-3.292-23.211.251-.756,1.151-.179,3.04.468,2.7.935,7.665,3.275,9.753,3.022,2.087-.233,3.671-2.591,4.66-4.408.324-.63,2.232-2.124,4.822-3.491h.019a24.119,24.119,0,0,1,6.044-2.34c3.851-.881,7.216-1.151,8.727.017,2.717,1.332,27.619,17.113,38.632,22.043a26.023,26.023,0,0,1,9.483,7.2C464.832,376.575,464.959,384.206,456.573,385.572Z" transform="translate(-373.826 -340.097)" fill="url(#linear-gradient-58)"/>
            <path id="Path_58" data-name="Path 58" d="M456.573,384.424c-6.532,1.079-31-.989-51.461-5.4-17.759-3.87-26.307-6.532-27.332-9.357-1.854-5.164-5.433-16.841-3.292-23.211.251-.756,1.151-.179,3.04.468,2.7.935,7.665,3.275,9.753,3.022,2.087-.233,3.671-2.591,4.66-4.408.324-.63,2.232-2.124,4.822-3.491h.019s-5.8,7.773-1.908,14.232c3.9,6.441,39.135,17.238,52.342,18.894,13.191,1.636,13.226-2.556,12.453-6.154v-.054C464.832,375.428,464.959,383.058,456.573,384.424Z" transform="translate(-373.826 -338.949)" opacity="0.4" fill="url(#linear-gradient-59)" style="mix-blend-mode: multiply;isolation: isolate"/>
          </g>
        </g>
        <g id="Group_62" data-name="Group 62" transform="translate(630.635 273.05)">
          <g id="Group_51" data-name="Group 51" transform="translate(0 6.619)">
            <rect id="Rectangle_20" data-name="Rectangle 20" width="11.824" height="226.271" fill="url(#linear-gradient-60)"/>
            <path id="Path_59" data-name="Path 59" d="M469.046,382.088s-.23,2.006-5.913,2.006c-5.316,0-5.911-2.006-5.911-2.006V360.516h11.824Z" transform="translate(-457.222 -155.536)" fill="url(#linear-gradient-61)"/>
            <rect id="Rectangle_21" data-name="Rectangle 21" width="11.824" height="3.899" transform="translate(0 100.693)" fill="url(#linear-gradient-62)"/>
          </g>
          <g id="Group_52" data-name="Group 52" transform="translate(34.12 6.619)">
            <rect id="Rectangle_22" data-name="Rectangle 22" width="11.824" height="226.271" transform="translate(0.001)" fill="url(#linear-gradient-60)"/>
            <path id="Path_60" data-name="Path 60" d="M490.541,382.088s-.23,2.006-5.911,2.006c-5.316,0-5.913-2.006-5.913-2.006V360.516h11.824Z" transform="translate(-478.717 -155.536)" fill="url(#linear-gradient-64)"/>
            <rect id="Rectangle_23" data-name="Rectangle 23" width="11.824" height="3.899" transform="translate(0.001 100.693)" fill="url(#linear-gradient-62)"/>
          </g>
          <g id="Group_53" data-name="Group 53" transform="translate(68.241 6.619)">
            <rect id="Rectangle_24" data-name="Rectangle 24" width="11.824" height="226.271" fill="url(#linear-gradient-60)"/>
            <path id="Path_61" data-name="Path 61" d="M512.037,382.088s-.23,2.006-5.913,2.006c-5.316,0-5.911-2.006-5.911-2.006V360.516h11.824Z" transform="translate(-500.213 -155.536)" fill="url(#linear-gradient-61)"/>
            <rect id="Rectangle_25" data-name="Rectangle 25" width="11.824" height="3.899" transform="translate(0 100.693)" fill="url(#linear-gradient-62)"/>
          </g>
          <g id="Group_57" data-name="Group 57" transform="translate(5.912)">
            <rect id="Rectangle_26" data-name="Rectangle 26" width="34.12" height="2.774" transform="translate(0 3.85)" fill="url(#linear-gradient-69)"/>
            <rect id="Rectangle_27" data-name="Rectangle 27" width="34.12" height="1.387" transform="translate(0 5.237)" opacity="0.4" fill="url(#linear-gradient-70)" style="mix-blend-mode: multiply;isolation: isolate"/>
            <g id="Group_54" data-name="Group 54" transform="translate(8.238)">
              <path id="Path_62" data-name="Path 62" d="M471.961,228.512v7.857a1.314,1.314,0,0,1-1.317,1.317h-3.191a1.314,1.314,0,0,1-1.318-1.317v-7.857a1.311,1.311,0,0,1,1.318-1.3h3.191A1.311,1.311,0,0,1,471.961,228.512Z" transform="translate(-466.136 -227.21)" fill="url(#linear-gradient-71)"/>
              <path id="Path_63" data-name="Path 63" d="M471.961,234.353v2.016a1.314,1.314,0,0,1-1.317,1.317h-3.191a1.314,1.314,0,0,1-1.318-1.317v-7.857a1.311,1.311,0,0,1,1.318-1.3h.413v6.317a.82.82,0,0,0,.825.825Z" transform="translate(-466.136 -227.21)" opacity="0.5" fill="url(#linear-gradient-72)" style="mix-blend-mode: multiply;isolation: isolate"/>
              <rect id="Rectangle_28" data-name="Rectangle 28" width="1.587" height="5.061" rx="0.465" transform="translate(3.572 0.47)" opacity="0.5" fill="url(#linear-gradient-73)" style="mix-blend-mode: screen;isolation: isolate"/>
              <path id="Path_64" data-name="Path 64" d="M471.961,232.64v.54a1.314,1.314,0,0,1-1.317,1.317h-3.191a1.314,1.314,0,0,1-1.318-1.317v-.54Z" transform="translate(-466.136 -224.021)" opacity="0.5" fill="url(#linear-gradient-74)" style="mix-blend-mode: multiply;isolation: isolate"/>
            </g>
            <g id="Group_55" data-name="Group 55" transform="translate(14.063)">
              <path id="Path_65" data-name="Path 65" d="M475.631,228.512v7.857a1.314,1.314,0,0,1-1.318,1.317h-3.19a1.314,1.314,0,0,1-1.317-1.317v-7.857a1.311,1.311,0,0,1,1.317-1.3h3.19A1.311,1.311,0,0,1,475.631,228.512Z" transform="translate(-469.806 -227.21)" fill="url(#linear-gradient-71)"/>
              <path id="Path_66" data-name="Path 66" d="M475.631,234.353v2.016a1.314,1.314,0,0,1-1.318,1.317h-3.19a1.314,1.314,0,0,1-1.317-1.317v-7.857a1.311,1.311,0,0,1,1.317-1.3h.413v6.317a.82.82,0,0,0,.825.825Z" transform="translate(-469.806 -227.21)" opacity="0.5" fill="url(#linear-gradient-72)" style="mix-blend-mode: multiply;isolation: isolate"/>
              <rect id="Rectangle_29" data-name="Rectangle 29" width="1.587" height="5.061" rx="0.465" transform="translate(3.572 0.47)" opacity="0.5" fill="url(#linear-gradient-73)" style="mix-blend-mode: screen;isolation: isolate"/>
              <path id="Path_67" data-name="Path 67" d="M475.631,232.64v.54a1.314,1.314,0,0,1-1.318,1.317h-3.19a1.314,1.314,0,0,1-1.317-1.317v-.54Z" transform="translate(-469.806 -224.021)" opacity="0.5" fill="url(#linear-gradient-74)" style="mix-blend-mode: multiply;isolation: isolate"/>
            </g>
            <g id="Group_56" data-name="Group 56" transform="translate(19.889)">
              <path id="Path_68" data-name="Path 68" d="M479.3,228.512v7.857a1.314,1.314,0,0,1-1.317,1.317h-3.191a1.314,1.314,0,0,1-1.317-1.317v-7.857a1.311,1.311,0,0,1,1.317-1.3h3.191A1.311,1.311,0,0,1,479.3,228.512Z" transform="translate(-473.476 -227.21)" fill="url(#linear-gradient-71)"/>
              <path id="Path_69" data-name="Path 69" d="M479.3,234.353v2.016a1.314,1.314,0,0,1-1.317,1.317h-3.191a1.314,1.314,0,0,1-1.317-1.317v-7.857a1.311,1.311,0,0,1,1.317-1.3h.413v6.317a.82.82,0,0,0,.825.825Z" transform="translate(-473.476 -227.21)" opacity="0.5" fill="url(#linear-gradient-72)" style="mix-blend-mode: multiply;isolation: isolate"/>
              <rect id="Rectangle_30" data-name="Rectangle 30" width="1.587" height="5.061" rx="0.465" transform="translate(3.572 0.47)" opacity="0.5" fill="url(#linear-gradient-73)" style="mix-blend-mode: screen;isolation: isolate"/>
              <path id="Path_70" data-name="Path 70" d="M479.3,232.64v.54a1.314,1.314,0,0,1-1.317,1.317h-3.191a1.314,1.314,0,0,1-1.317-1.317v-.54Z" transform="translate(-473.476 -224.021)" opacity="0.5" fill="url(#linear-gradient-74)" style="mix-blend-mode: multiply;isolation: isolate"/>
            </g>
          </g>
          <g id="Group_61" data-name="Group 61" transform="translate(40.032)">
            <rect id="Rectangle_31" data-name="Rectangle 31" width="34.12" height="2.774" transform="translate(0 3.85)" fill="url(#linear-gradient-69)"/>
            <rect id="Rectangle_32" data-name="Rectangle 32" width="34.12" height="1.387" transform="translate(0 5.237)" opacity="0.4" fill="url(#linear-gradient-70)" style="mix-blend-mode: multiply;isolation: isolate"/>
            <g id="Group_58" data-name="Group 58" transform="translate(8.237)">
              <path id="Path_71" data-name="Path 71" d="M493.456,228.512v7.857a1.314,1.314,0,0,1-1.317,1.317h-3.191a1.314,1.314,0,0,1-1.317-1.317v-7.857a1.311,1.311,0,0,1,1.317-1.3h3.191A1.311,1.311,0,0,1,493.456,228.512Z" transform="translate(-487.631 -227.21)" fill="url(#linear-gradient-85)"/>
              <path id="Path_72" data-name="Path 72" d="M493.456,234.353v2.016a1.314,1.314,0,0,1-1.317,1.317h-3.191a1.314,1.314,0,0,1-1.317-1.317v-7.857a1.311,1.311,0,0,1,1.317-1.3h.413v6.317a.82.82,0,0,0,.825.825Z" transform="translate(-487.631 -227.21)" opacity="0.5" fill="url(#linear-gradient-86)" style="mix-blend-mode: multiply;isolation: isolate"/>
              <rect id="Rectangle_33" data-name="Rectangle 33" width="1.587" height="5.061" rx="0.465" transform="translate(3.573 0.47)" opacity="0.5" fill="url(#linear-gradient-73)" style="mix-blend-mode: screen;isolation: isolate"/>
              <path id="Path_73" data-name="Path 73" d="M493.456,232.64v.54a1.314,1.314,0,0,1-1.317,1.317h-3.191a1.314,1.314,0,0,1-1.317-1.317v-.54Z" transform="translate(-487.631 -224.021)" opacity="0.5" fill="url(#linear-gradient-88)" style="mix-blend-mode: multiply;isolation: isolate"/>
            </g>
            <g id="Group_59" data-name="Group 59" transform="translate(14.062)">
              <path id="Path_74" data-name="Path 74" d="M497.126,228.512v7.857a1.314,1.314,0,0,1-1.318,1.317h-3.19a1.314,1.314,0,0,1-1.318-1.317v-7.857a1.311,1.311,0,0,1,1.318-1.3h3.19A1.311,1.311,0,0,1,497.126,228.512Z" transform="translate(-491.301 -227.21)" fill="url(#linear-gradient-85)"/>
              <path id="Path_75" data-name="Path 75" d="M497.126,234.353v2.016a1.314,1.314,0,0,1-1.318,1.317h-3.19a1.314,1.314,0,0,1-1.318-1.317v-7.857a1.311,1.311,0,0,1,1.318-1.3h.413v6.317a.82.82,0,0,0,.826.825Z" transform="translate(-491.301 -227.21)" opacity="0.5" fill="url(#linear-gradient-86)" style="mix-blend-mode: multiply;isolation: isolate"/>
              <rect id="Rectangle_34" data-name="Rectangle 34" width="1.587" height="5.061" rx="0.465" transform="translate(3.573 0.47)" opacity="0.5" fill="url(#linear-gradient-73)" style="mix-blend-mode: screen;isolation: isolate"/>
              <path id="Path_76" data-name="Path 76" d="M497.126,232.64v.54a1.314,1.314,0,0,1-1.318,1.317h-3.19a1.314,1.314,0,0,1-1.318-1.317v-.54Z" transform="translate(-491.301 -224.021)" opacity="0.5" fill="url(#linear-gradient-88)" style="mix-blend-mode: multiply;isolation: isolate"/>
            </g>
            <g id="Group_60" data-name="Group 60" transform="translate(19.888)">
              <path id="Path_77" data-name="Path 77" d="M500.8,228.512v7.857a1.314,1.314,0,0,1-1.317,1.317h-3.191a1.314,1.314,0,0,1-1.317-1.317v-7.857a1.311,1.311,0,0,1,1.317-1.3h3.191A1.311,1.311,0,0,1,500.8,228.512Z" transform="translate(-494.971 -227.21)" fill="url(#linear-gradient-85)"/>
              <path id="Path_78" data-name="Path 78" d="M500.8,234.353v2.016a1.314,1.314,0,0,1-1.317,1.317h-3.191a1.314,1.314,0,0,1-1.317-1.317v-7.857a1.311,1.311,0,0,1,1.317-1.3h.413v6.317a.82.82,0,0,0,.825.825Z" transform="translate(-494.971 -227.21)" opacity="0.5" fill="url(#linear-gradient-86)" style="mix-blend-mode: multiply;isolation: isolate"/>
              <rect id="Rectangle_35" data-name="Rectangle 35" width="1.587" height="5.061" rx="0.465" transform="translate(3.573 0.47)" opacity="0.5" fill="url(#linear-gradient-73)" style="mix-blend-mode: screen;isolation: isolate"/>
              <path id="Path_79" data-name="Path 79" d="M500.8,232.64v.54a1.314,1.314,0,0,1-1.317,1.317h-3.191a1.314,1.314,0,0,1-1.317-1.317v-.54Z" transform="translate(-494.971 -224.021)" opacity="0.5" fill="url(#linear-gradient-88)" style="mix-blend-mode: multiply;isolation: isolate"/>
            </g>
          </g>
        </g>
        <g id="Group_75" data-name="Group 75" transform="translate(341.716)">
          <path id="Path_80" data-name="Path 80" d="M422.745,153.448s-13.467-3.5-21.341,7.629c-10.491,14.829-10.491,45.269-10.491,45.269l41.2-12.9Z" transform="translate(-207.246 2.212)" fill="url(#linear-gradient-97)"/>
          <g id="Group_63" data-name="Group 63" transform="translate(58.197)">
            <path id="Path_81" data-name="Path 81" d="M411.407,142.817s-30.524,20.5-51.594,35.03c-10.821,7.46-34.845,26.61-36.729,26.184A16.088,16.088,0,0,1,312,187.911c.3-1.921,26.334-18.133,37.191-25.538,21.126-14.441,51.243-35.548,51.243-35.548l5.484,8,2.16,3.157Z" transform="translate(-311.868 -13.118)" fill="url(#linear-gradient-98)"/>
            <path id="Path_82" data-name="Path 82" d="M411.407,138.927s-30.524,20.5-51.594,35.03c-10.821,7.46-34.845,26.61-36.729,26.184A16.088,16.088,0,0,1,312,184.021s2.806,9.935,9.659,8.641c6.832-1.311,84.415-59.215,84.415-59.215l2,.641Z" transform="translate(-311.868 -9.228)" opacity="0.5" fill="url(#linear-gradient-99)" style="mix-blend-mode: multiply;isolation: isolate"/>
            <path id="Path_83" data-name="Path 83" d="M509.236,121.237c-34.994,26.092-118.941,75.083-120.879,75.4-.684.111-2.16-.832-4.064-2.475h-.017a79.764,79.764,0,0,1-12.446-14.145,84.209,84.209,0,0,1-7.054-12.613c-1.957-4.359-3.01-7.867-2.494-8.771.979-1.717,76.893-62.4,113.825-85.683,34.919-22.011,43.766-20.367,50.912-12.113.406.479.813.979,1.219,1.5,1.329,1.681,4.838,7.037,4.838,7.037s3.73,5.206,4.819,7.035a21.512,21.512,0,0,1,2.806,6.5C542.567,91.1,536.843,100.665,509.236,121.237Z" transform="translate(-282.335 -55.19)" fill="url(#linear-gradient-100)"/>
            <path id="Path_84" data-name="Path 84" d="M501.043,110.983c-34.994,26.092-118.941,75.083-120.879,75.4-.684.111-2.16-.832-4.064-2.475,38.853-21.588,121.83-76.285,134.676-88.037,19.6-17.927,21.473-22.538,21.732-23.221C534.374,80.846,528.65,90.412,501.043,110.983Z" transform="translate(-274.142 -44.937)" opacity="0.5" fill="url(#linear-gradient-101)" style="mix-blend-mode: multiply;isolation: isolate"/>
          </g>
          <path id="Path_85" data-name="Path 85" d="M410.259,199.682l-16.045,28.5-36.24-51.274s10.876-15.526,14.081-12.154A409.907,409.907,0,0,0,410.259,199.682Z" transform="translate(-226.592 8.876)" fill="url(#linear-gradient-102)"/>
          <path id="Path_86" data-name="Path 86" d="M509.546,328.446s13.8-1.8,32.543,10.771c20.889,14.014,91.4,69.129,95.436,72.759,1.244,1.119,4.319,7.421.325,8.846-8.951,3.194-31.143,1.54-31.143,1.54s-118.666-51.788-141.062-64.721-11.165-23.381-9.954-24.188S480.944,310.641,509.546,328.446Z" transform="translate(-171.481 101.225)" fill="url(#linear-gradient-103)"/>
          <path id="Path_87" data-name="Path 87" d="M606.052,376.039s-3.841,18.318-19.169,27.81a26.461,26.461,0,0,1-17.543,3.471,27.859,27.859,0,0,1-16.97-8.6c-7.756-8.7-13.775-10.286-48.75-32.445s-52.777-38.521-56.285-41.678l-.038-.036c-1.476-1.238-7.865-.648-16.508.83-12.778,2.143-30.507,6.168-44.762,8.883-10.175,1.938-23.8,4.949-35.677,7.516-13.037,2.843-23.968,5.133-25.907,4.856-3.694-.535-9.954-17.21-13.648-26.7s-30.6-5-21.419-33.238c2.16-6.592,131-46.239,131-46.239l107.472,12.3s21.513,29.38,26.259,48.623c4.746,19.259,2.1,13.719,12.925,28.492C577.836,344.647,606.052,376.039,606.052,376.039Z" transform="translate(-267.994 53.623)" fill="url(#linear-gradient-104)"/>
          <path id="Path_88" data-name="Path 88" d="M551.982,377.311c-10.618-6.241-43.55-25.7-51.859-32.162s-19.573-15.24-36.008-23.237c-16.454-8-21.089-17.241-31.392-25.7a22.343,22.343,0,0,0-3.046-2.059l.041-.011s-15-6.586-26.311-17.665c-6.61-6.476-9.232-11-9.675-8.619-.075.4.145,1.159.87,2.656,3.727,7.7,14.84,19.715,11.46,19.121-8.541-1.5-15.489-16.873-16.967-15.581-1.846,1.616,6.9,16.059,4.156,18.581,0,0-2.249,3.764-8.227,6.035-12.926,4.93-11.706-.241-25.243,6.038s-33.811,6.5-35.251,9.048c-.813,1.422,1.735,7.332,4.154,12.318,11.875-2.567,25.5-5.578,35.677-7.516,14.259-2.71,31.988-6.735,44.761-8.894l0,.011c3.7-.633,6.986-1.1,9.652-1.335l.219-.019c.3-.025.578-.044.857-.063l.368-.024c.259-.014.511-.027.754-.036l.359-.011c.233-.006.467-.011.684-.011.089,0,.167,0,.252,0,.375,0,.721.019,1.043.043.132.01.268.017.39.032s.244.032.362.049.256.04.371.065c.1.019.191.041.279.065a3.316,3.316,0,0,1,.341.11c.062.022.129.044.184.07a1.751,1.751,0,0,1,.39.233l.038.036c3.508,3.157,21.31,19.519,56.285,41.678S522.947,374.306,530.7,383a27.859,27.859,0,0,0,16.97,8.6C549.317,387.325,555.509,379.379,551.982,377.311Z" transform="translate(-246.325 69.335)" opacity="0.5" fill="url(#linear-gradient-105)" style="mix-blend-mode: multiply;isolation: isolate"/>
          <path id="Path_89" data-name="Path 89" d="M368.617,243.923s6.729,7.886,20.808,12.272,25.122-.462,35.183,0,52.32-4.479,52.32-4.479S383.355,240.883,368.617,243.923Z" transform="translate(-220.341 55.34)" opacity="0.5" fill="url(#linear-gradient-106)" style="mix-blend-mode: multiply;isolation: isolate"/>
          <path id="Path_90" data-name="Path 90" d="M484.035,306.314c-.24,4.211-10.691,4.248-28.954,3.786-1.219-.037-2.456-.056-3.749-.092-20.57-.517-60.937,3.176-73.328-3.157s-10.544-6.335-10.729-10.286c-.2-3.952,3.083-5.024,1.237-8.181s-2.641-7.129,5-22.676c7.644-15.567,32.924-78.112,39.24-89.339,7.349-13.056,17.949-17.173,23.876-17.967,4.265-.573,10.194-7.5,13.2-11.357,1.183-1.514,1.9-2.548,1.9-2.548l34.643,30.469s19.038,19.278,19.019,38.427c-.036,32.445-21.107,58.372-23.211,74.991S484.294,301.827,484.035,306.314Z" transform="translate(-221.134 -2.739)" fill="url(#linear-gradient-107)"/>
          <path id="Path_91" data-name="Path 91" d="M406.146,295.881c-2.77,3.23,1.606,7.533,14.533,9.6s34.4,3.675,34.4,3.675c-1.219-.037-2.456-.056-3.749-.092-20.57-.517-60.937,3.176-73.328-3.157s-10.544-6.335-10.729-10.286c-.2-3.952,3.083-5.024,1.237-8.181s-2.641-7.129,5-22.676c7.644-15.567,32.924-78.112,39.24-89.339,7.349-13.056,17.949-17.173,23.876-17.967,4.265-.573,10.194-7.5,13.2-11.357l6.7,7.368s-3.206,3.206-12.846,13.364c-9.621,10.156-30.094,44.934-23.853,68.939,6.224,24.007,45.908,26.165,47.551,31.7s-51.089-1.586-59.861-.884c-8.791.683-8.61,5.587-7.627,7.964,2.433,5.886,13.3,13.041,33.018,15.349,19.74,2.308,35.605.4,36.329,2.078,1.4,3.235-14.927,6.467-40.484,2.886C416.687,293.172,408.915,292.649,406.146,295.881Z" transform="translate(-221.134 -1.796)" opacity="0.15" fill="url(#linear-gradient-108)" style="mix-blend-mode: multiply;isolation: isolate"/>
          <path id="Path_92" data-name="Path 92" d="M423.749,137.883s-1.789,8.352-4.9,13.926c3.4,4.021,11.249,9.733,14.711,10.311s-3.419-21.489-7.14-22.5S423.749,137.883,423.749,137.883Z" transform="translate(-190.84 -6.623)" fill="url(#linear-gradient-109)"/>
          <path id="Path_93" data-name="Path 93" d="M484.455,148.542S481.3,159.622,472.323,174.4c-8.956,14.773-9.492,15.549-17.137,15.826-2.271.075-5.8-1.478-9.713-4.173a.518.518,0,0,1-.111-.092c-9.214-6.335-20.645-18.891-23.545-31.208-2.178-9.27-3.249-18.189-.073-24.615,1.7-3.51,4.691-6.279,9.437-7.959C444.624,117.409,491.325,126.125,484.455,148.542Z" transform="translate(-190.309 -16.59)" fill="url(#linear-gradient-109)"/>
          <path id="Path_94" data-name="Path 94" d="M458.455,134.233v10.692s-2.2,8.033-4.192,10.286c-1.994,2.271-5.225,2.954-6.148,6.611s-3.4,12.279-3.694,15.049c-.3,2.622.3,5.484.941,6.168-9.214-6.335-20.645-18.891-23.545-31.208-2.178-9.27-3.249-18.189-.073-24.615a5.567,5.567,0,0,1,2.364-1.33c1.846-.111,20.922.646,21.992,1.5C447.191,128.231,458.455,134.233,458.455,134.233Z" transform="translate(-190.309 -13.675)" opacity="0.3" fill="url(#linear-gradient-111)" style="mix-blend-mode: multiply;isolation: isolate"/>
          <path id="Path_95" data-name="Path 95" d="M367.688,448.824c-.11,5.614-2.548,11.283-18.281,15.734-15.733,4.432-25.057,14.367-40.662,15.252-17.616,1.016-37.856-6.979-31.078-15.751,7-9.086,46.737-40.588,46.737-40.588s-15.068-76.948-21.032-98.923c-13.334-48.935,41.069-34.975,41.069-34.975s12.168,4.154,14.329,24.061c2.143,19.889-2.954,94.787-1.329,103.928C359.046,426.7,367.873,439.407,367.688,448.824Z" transform="translate(-274.546 81.385)" fill="url(#linear-gradient-112)"/>
          <g id="Group_64" data-name="Group 64" transform="translate(0 498.948)">
            <path id="Path_96" data-name="Path 96" d="M276.017,409.745s-1.357,1.732-.563,4.964,6.873,9.348,21.107,11.2,26.083-1.848,29.315-3.386,11.7-6.078,17.389-8.156,12.387-3.848,18.389-7,7.7-5.673,7.935-8.673-1.238-12.332-1.238-12.332Z" transform="translate(-275.204 -359.638)" fill="url(#linear-gradient-113)"/>
            <path id="Path_97" data-name="Path 97" d="M369.492,400.694c-.111,5.614-3.36,13.019-19.094,17.468-15.734,4.433-25.649,13.7-41.235,14.773-22.307,1.552-39.056-8.919-32.278-17.691,4.616-6,24.08-21.419,36.784-31.189a2.15,2.15,0,0,1,.184-.165c6.464-4.968,11.116-8.457,11.116-8.457a89.822,89.822,0,0,0,33.037-5.91c1.348,7.681,8.66,17.8,10.857,26.424A17.4,17.4,0,0,1,369.492,400.694Z" transform="translate(-275.112 -369.524)" fill="url(#linear-gradient-114)"/>
            <path id="Path_98" data-name="Path 98" d="M369.492,395.317c-.111,5.614-3.36,13.019-19.094,17.468-15.734,4.433-25.649,13.7-41.235,14.773-22.307,1.552-39.056-8.919-32.278-17.691,4.616-6,24.08-21.419,36.784-31.189-1.09,1-22.334,18.487-15.894,23.034,5.232,3.694,18.365.31,24.8-2.625,8.748-3.991,19.68,2.022,26.291.471,6.63-1.532,17.064-2.376,20-8.968v-.019A17.4,17.4,0,0,1,369.492,395.317Z" transform="translate(-275.112 -364.147)" opacity="0.4" fill="url(#linear-gradient-115)" style="mix-blend-mode: multiply;isolation: isolate"/>
          </g>
          <path id="Path_99" data-name="Path 99" d="M361.183,149.31l7.1-4.811s10.992,10.956,10.191,13.153-4.941,9.584-3.91,11.662,3.9,2.481,4.244,5.483-8.752,13.1-16.484,15.754-7.5-18.7-7.5-18.7l2.7-20.064Z" transform="translate(-228.442 -2.737)" fill="url(#linear-gradient-116)"/>
          <path id="Path_100" data-name="Path 100" d="M395.76,191.928s-5.351,1.594-.068,21.021,14.026,25.2,17.906,25.026,8.613-19.1,8.613-19.1l-1.208-7.5s-4.448-11.657-5.716-12.7S404.164,185.871,395.76,191.928Z" transform="translate(-205.808 24.106)" fill="url(#linear-gradient-117)"/>
          <path id="Path_101" data-name="Path 101" d="M431.336,204.566l-28.861,11.2s-7.756-8.671-12.464-14.229c-6.1-7.2-31.773-36.961-31.773-36.961l-14.854,10.338s32.7,74.942,49.051,82.412c7.025,3.21,66.229-23.167,66.229-23.167Z" transform="translate(-235.161 9.053)" fill="url(#linear-gradient-118)"/>
          <path id="Path_102" data-name="Path 102" d="M449.567,176.745S392.59,197.271,394.9,200.81c0,0,9.992-.844,18.026,15.981,6.118,12.811,3.232,24.353-.187,30.065,2.524,1.846,9.592-6.865,25.289-12.867s33.37-8.378,39.8-22.416c6.156-13.44,3.154-29.542-9.484-34.675A26.294,26.294,0,0,0,449.567,176.745Z" transform="translate(-204.946 15.223)" fill="url(#linear-gradient-119)"/>
          <path id="Path_103" data-name="Path 103" d="M362.85,132.322s-3,1.462-2.251,6.386,2.53,11.773,2.53,11.773a25.253,25.253,0,0,0-1.991,10.714c.075,6.506-.225,12.808,3.289,13.984,3.9,1.3,10.157-7.541,11.541-11.7s.4-15.7-1.03-18.316S367.506,129.36,362.85,132.322Z" transform="translate(-225.121 -10.142)" fill="url(#linear-gradient-120)"/>
          <path id="Path_104" data-name="Path 104" d="M344.975,140.89a29.5,29.5,0,0,0,2.848,11.311c1.456,3.137,7.4,7.883,9.232,8.089s4.952-1.829,5.029-4.367-1.873-5.724-4.335-9.032c-.887-1.192-1.443-7.437-1.443-7.437l3.765-2.624s-5.468-2.714-7.478-2.327C348.593,135.274,344.669,139.185,344.975,140.89Z" transform="translate(-234.236 -8.63)" fill="url(#linear-gradient-121)"/>
          <path id="Path_105" data-name="Path 105" d="M350.37,137.594a29.5,29.5,0,0,0,2.848,11.311c1.456,3.137,7.4,7.883,9.232,8.089s4.952-1.829,5.029-4.367-1.873-5.724-4.335-9.032c-.887-1.192-1.443-7.435-1.443-7.435l4.846-3.379s-5.592-2.848-7.63-2.651C354.146,130.593,350.064,135.889,350.37,137.594Z" transform="translate(-231.067 -11.182)" fill="url(#linear-gradient-122)"/>
          <path id="Path_106" data-name="Path 106" d="M347.662,194.684A4.667,4.667,0,0,1,349,199.733c-.583,1.744-.56,4.008,2.689,5.1,7.079,2.386,27.922-11.124,28.8-14.311.9-3.27-.987-4.316-2.529-4.64a3.2,3.2,0,0,1-2.437-2.556,13.519,13.519,0,0,1,2.3-10.5c4.571-6.462,2.259-13.641,1.425-17.648l-4.124,2.8a1.6,1.6,0,0,1-1.467.121,2.4,2.4,0,0,0-.835-.149A9.325,9.325,0,0,1,365.2,154.3c-2.37-3.181-6.562-13.145-6.77-15.773.154-.808,2.548-2.222,4.176-2.938-1.079-1.073-7.648-2.53-8.235-2.544-2.77-.07-6.667,3.1-7.526,6.243a6.734,6.734,0,0,0-.321,3.422,9.809,9.809,0,0,0-7.119,7.538s-7.335,2.386-7.951,7.865c0,0-5.54,2.71-5.232,8.249s4.616,15.079,11.541,20.465C341.959,190.093,345.446,192.771,347.662,194.684Z" transform="translate(-245.246 -9.463)" fill="url(#linear-gradient-123)"/>
          <path id="Path_107" data-name="Path 107" d="M457.554,142.033s-5.232,6.925-9.079,6.618-6.156-.09-7.232,1.57a45.65,45.65,0,0,1-4.617,5.048l-2.924-2.616s3.232-11.31.924-15.349a5.458,5.458,0,0,0-8.137-1.786c-1.4,1.284-4.244,16.192-4.244,16.192s-3.489-1.99-3.93-7.676c-.776-9.967,3.456-21.53,3.456-21.53Z" transform="translate(-191.209 -15.656)" fill="url(#linear-gradient-124)"/>
          <g id="Group_65" data-name="Group 65" transform="translate(13.574 334.077)">
            <path id="Path_108" data-name="Path 108" d="M321.455,322.994s8.462,1.586,12.141,0c1.784-.77,2.743,5.694-.446,7.233-5.571,2.687-13.773,0-13.773,0" transform="translate(-262.835 -232.018)" fill="url(#linear-gradient-125)"/>
            <path id="Path_109" data-name="Path 109" d="M321.455,304.291s8.327,1.229,12.141,0c1.1-.356,2.743,5.694-.446,7.232-5.571,2.689-13.773,0-13.773,0" transform="translate(-262.835 -242.975)" fill="url(#linear-gradient-126)"/>
            <path id="Path_110" data-name="Path 110" d="M318.081,363.074s7.268.462,10.137.384a9.617,9.617,0,0,0,4.4-1s1.16.308,1.314,2.616-.232,4.232-2.54,5.1c-1.381.517-7.848,1.135-13.311.365" transform="translate(-263.596 -208.803)" fill="url(#linear-gradient-127)"/>
            <path id="Path_111" data-name="Path 111" d="M344.377,401.129c-.627,20.849.592,26.684.592,26.684s4.081,20.219-7.683,15.475a32.832,32.832,0,0,0-4.579-1.5v-.017c-10.138-2.549-15.141,1.44-16.084-3.084-1.071-5.171-38.169-166.416-32.223-171.532s20.681,3.675,26.554,13.776c2.289,3.914,7.5,3.564,13.276,5.022a20.888,20.888,0,0,1,12.668,8.457c4.487,6.186,10.3,15.124,11.375,33.923.075,1.311.111,2.825.092,4.524-.017,4.487-.314,10.249-.738,16.711C346.612,365.1,344.858,384.787,344.377,401.129Z" transform="translate(-283.756 -265.656)" fill="url(#linear-gradient-128)"/>
            <path id="Path_112" data-name="Path 112" d="M344.447,328.393l-10.9.887-37.084-5.227-1.54-12.31s-6.771-37.78-3.7-38.472c3.01-.678,8.162,32.464,8.938,33.553.757,1.071,8.6,2.456,9.381,2.308.775-.165-3.546-26.759-.308-25.473,2.9,1.154,6.218,25.473,7.638,26.4,1.441.924,7.443,2.143,8.827,1.533s-1.422-25.576-5.392-30.1a20.888,20.888,0,0,1,12.668,8.457c4.487,6.186,10.3,15.124,11.375,33.923C344.43,325.18,344.466,326.695,344.447,328.393Z" transform="translate(-279.837 -261.19)" opacity="0.5" fill="url(#linear-gradient-129)" style="mix-blend-mode: multiply;isolation: isolate"/>
            <path id="Path_113" data-name="Path 113" d="M337.748,400.228s4.081,20.219-7.683,15.475a32.845,32.845,0,0,0-4.579-1.5v-.017a5.505,5.505,0,0,0,3.73-5.1c0-3.933-5.429-77.115-5.891-77.742-.462-.646-7.738-2.363-8.31-1.33-.365.659,3.376,32.415,5.616,55.475,1.281,13.184,2.383,23.164,1.27,23.2-1.227.037-2.048-7.235-3.673-17.813-3.581-23.3-8.194-60.831-8.752-62.024-.813-1.717-7.848-3.341-8.2-1.606s11.864,67.41,12.64,73.559c.473,3.854,1.073,6.733.237,6.991-.565.175-.979-.984-1.5-2.606-.8-2.5-16.6-85.034-16.6-85.034l2.2-7.535s26.775,3.232,29.23,4.156c1.478.554,7.738,2.843,12.927,5.206-1.016,15.53-2.77,35.216-3.251,51.558C336.529,394.393,337.748,400.228,337.748,400.228Z" transform="translate(-276.534 -238.071)" opacity="0.5" fill="url(#linear-gradient-130)" style="mix-blend-mode: multiply;isolation: isolate"/>
            <path id="Path_114" data-name="Path 114" d="M347.9,329.742s3.379,6.759-1.735,10.3c-3.527,2.438-41.973-3.951-50.431-10.156-2.124-1.552-4.8-4.064-5.91-7.2a8.687,8.687,0,0,1-.37-4.581c-3.97-3.711-3.471-10.137-1.662-14.624-4.6-10.065-.351-12.649-.351-12.649s-.249,3.613,12.216,7.124c6.238,1.759,18.364,4.768,30.016,6.929h.019c6.425,1.181,12.575,2.751,17.21,5.225,4.746,2.53,1.681,9.621,1.681,9.621C350.133,324.313,347.9,329.742,347.9,329.742Z" transform="translate(-282.641 -250.868)" fill="url(#linear-gradient-131)"/>
            <path id="Path_115" data-name="Path 115" d="M346.355,324.542s3.379,6.759-1.735,10.3c-3.527,2.438-41.973-3.951-50.431-10.156-2.124-1.552-4.8-4.063-5.91-7.2,2.251,3.819,8.156,7.1,13.641,8.529,11.487,3,20.826,3.165,20.026-.127-.348-1.432-3.124-2.7-6.965-4.081-6.389-2.308-14.514-5.375-13.092-5.891,2.235-.813,10.414,3.8,22.916,4.154,6.316.167,7.387-5.078-.462-8.919-7.848-3.859-25.649-7.183-27.384-10.008-1.4-2.271,30.926,9.656,34.569,4.56,1.94-2.714-.444-4.984-3.379-6.019,6.425,1.181,12.575,2.751,17.21,5.225,4.746,2.53,1.681,9.621,1.681,9.621C348.59,319.114,346.355,324.542,346.355,324.542Z" transform="translate(-281.098 -245.669)" opacity="0.5" fill="url(#linear-gradient-132)" style="mix-blend-mode: multiply;isolation: isolate"/>
          </g>
          <g id="Group_66" data-name="Group 66" transform="translate(281.292 428.546)">
            <path id="Path_116" data-name="Path 116" d="M509.356,352.72a33.286,33.286,0,0,0,2.267-18.461s1.811-2.043,7.806,3.654c3.235,3.075,2.544,11.462.237,18.694" transform="translate(-418.975 -320.043)" fill="url(#linear-gradient-133)"/>
            <path id="Path_117" data-name="Path 117" d="M487.542,344.188a33.841,33.841,0,0,0,1.689-17.946s1.5-2.438,8.487.043c4.206,1.5,2.443,14.559.135,21.792" transform="translate(-431.787 -325.171)" fill="url(#linear-gradient-134)"/>
            <path id="Path_118" data-name="Path 118" d="M543,378.756a34.412,34.412,0,0,0,6.64-17.254s2.821-1.229,6.917,4.368c2.636,3.6-.5,12.9-4.6,19.3" transform="translate(-399.216 -303.901)" fill="url(#linear-gradient-135)"/>
            <path id="Path_119" data-name="Path 119" d="M618.206,409.369c-1.809.813-2.954,2.53-3.989,4.413v.019c-1.662,3.01-2.991,6.408-6.259,7.035-3.473.665-62.194-23.4-101.971-39.961-4.56-1.9-8.883-3.711-12.833-5.354-13.979-5.854-23.434-9.843-23.434-9.843-12.816-4.248-20.276-12.908-16.176-22.991a17.177,17.177,0,0,1,5.706-7.478l.24-.167.019-.019c5.448-3.951,13.368-5.022,22.362-3.9,13.259,1.679,17.376-4.451,28.234-2.438,10.878,2.013,35.807,18.8,46.388,26.24,11.652,8.2,31.707,27,35.769,30.93C598.725,392.085,624.946,406.341,618.206,409.369Z" transform="translate(-452.416 -323.345)" fill="url(#linear-gradient-136)"/>
            <path id="Path_120" data-name="Path 120" d="M594.4,404.631c-1.662,3.01-2.99,6.408-6.259,7.035-3.473.665-62.194-23.4-101.971-39.961a32.515,32.515,0,0,1,2.032-2.567l24.08-25.243,3.767,2.956S579.41,385.1,577.661,387c-1.424,1.546-59.428-34.1-60.475-34.611-3.367-1.648-8.059,5.2-5.018,7.8.786.67,70.212,33.951,68.975,36.564-1.038,2.2-69.685-33.583-71.067-33.905-2.411-.565-5.111,3.892-3.413,6.052s59.405,28.937,72.018,33.7S594.4,404.631,594.4,404.631Z" transform="translate(-432.595 -314.175)" opacity="0.5" fill="url(#linear-gradient-137)" style="mix-blend-mode: multiply;isolation: isolate"/>
            <path id="Path_121" data-name="Path 121" d="M509.183,352.889a136.359,136.359,0,0,1-16.029,20.184c-13.979-5.854-23.434-9.843-23.434-9.843-12.816-4.248-20.276-12.908-16.176-22.991a17.177,17.177,0,0,1,5.706-7.478l.24-.167c-.222.351-2.979,4.8.019,8.4,7.884,9.464,35.451,19.848,37.188,19.848s3.551-2.459,3.167-4.921c-.137-.876-25.545-14.465-26.229-16.311-.7-1.848,26.978,12.113,28.383,11.772,3.154-.767,4.308-5.273,3.54-6.925-.649-1.392-17.876-9.31-18.227-10.694-.351-1.367,19.611,7.762,21,7.078,1.384-.7,4.438-6.622,5.583-8.267C515.054,330.95,513.818,345.392,509.183,352.889Z" transform="translate(-452.416 -320.897)" opacity="0.5" fill="url(#linear-gradient-138)" style="mix-blend-mode: multiply;isolation: isolate"/>
            <path id="Path_122" data-name="Path 122" d="M525.072,345.078a.018.018,0,0,1-.019.017c-2.9,10.341-17.173,36.821-23.949,39.758-6.464,2.825-8.994-3.1-8.994-3.1s-4.671.257-7.054-.813a8.277,8.277,0,0,1-3.583-3.51s-4.616-.46-6.075-1.679a2.961,2.961,0,0,1-.868-3.048,6.708,6.708,0,0,0,4.414-1.5c3.027-2.438,7.422-7.11,11.892-14.33v-.017A107.056,107.056,0,0,0,502.451,329.9s4.192-3.176,8.106,2.364c0,0,5.559-.186,7.848,4.357,0,0,5.8.019,7.109,4.949A7.972,7.972,0,0,1,525.072,345.078Z" transform="translate(-439.498 -322.927)" fill="url(#linear-gradient-139)"/>
            <path id="Path_123" data-name="Path 123" d="M525.052,339.137c-2.9,10.341-17.173,36.821-23.949,39.758-6.464,2.825-8.994-3.1-8.994-3.1s-4.671.257-7.054-.813a8.277,8.277,0,0,1-3.583-3.51s-4.616-.46-6.075-1.679a2.961,2.961,0,0,1-.868-3.048,6.708,6.708,0,0,0,4.414-1.5c3.027-2.438,7.422-7.11,11.892-14.33-.056.3-.929,3.116,1.144,3.916,2.9,1.117,7.035-6.113,9.362-10.73,2.291-4.616,2.125-.629-1.611,6.411-2.371,4.47-3.592,5.468-4.2,7.708-1.165,4.287,5.179,5.83,7.725,2.313,6.964-9.618,7.194-11.694,9.738-18.351,1.5-3.938,2.133-2.243,1.033,1.637a96.66,96.66,0,0,1-5.651,13.948c-2.508,5.141,3.8,5.614,7.738-1.773C519.9,348.85,524.757,339.71,525.052,339.137Z" transform="translate(-439.498 -316.969)" opacity="0.5" fill="url(#linear-gradient-140)" style="mix-blend-mode: multiply;isolation: isolate"/>
          </g>
          <g id="Group_73" data-name="Group 73" transform="translate(223.494 71.399)">
            <path id="Path_124" data-name="Path 124" d="M511.253,167.741c-1.384,4.986-20.313,5.448-55.194-6.352C419.274,148.924,416,137.254,416,137.254c12.557-33.183,35.751-41.345,55.251-35.2a46.481,46.481,0,0,1,13.813,7.24c20.848,15.826,13.276,44.91,13.276,44.91S512.638,162.773,511.253,167.741Z" transform="translate(-416.004 -100.171)" fill="url(#linear-gradient-141)"/>
            <g id="Group_67" data-name="Group 67" transform="translate(20.134 50.361)">
              <path id="Path_125" data-name="Path 125" d="M428.885,158.286c-1.337-10.806,4.592-25.756,4.846-26.388l1.713.687c-.059.151-6,15.141-4.725,25.473Z" transform="translate(-428.689 -131.898)" fill="url(#linear-gradient-142)"/>
            </g>
            <g id="Group_68" data-name="Group 68" transform="translate(36.442 82.914)">
              <path id="Path_126" data-name="Path 126" d="M439.962,173.413l-1-1.552c9.824-6.332,14.656-19.324,14.7-19.454l1.735.632C455.2,153.595,450.316,166.739,439.962,173.413Z" transform="translate(-438.962 -152.406)" fill="url(#linear-gradient-143)"/>
            </g>
            <g id="Group_69" data-name="Group 69" transform="translate(55.521 78.236)">
              <path id="Path_127" data-name="Path 127" d="M452.363,168.959l-1.381-1.225a71.792,71.792,0,0,0,12.048-18.275l1.714.692A72.492,72.492,0,0,1,452.363,168.959Z" transform="translate(-450.982 -149.459)" fill="url(#linear-gradient-144)"/>
            </g>
            <g id="Group_70" data-name="Group 70" transform="translate(11.468 68.531)">
              <path id="Path_128" data-name="Path 128" d="M469.745,177.858a6.463,6.463,0,0,1-4.34,4.506,9.986,9.986,0,0,1-3.379.535c-3.711,0-8.6-1.478-14.052-4.284-8.568-4.4-18.1-12.132-20.073-19.445-.184-.7-.406-1.478-.646-2.291-1.459-4.967-3.619-11.689-3.97-12.8l-.056-.165,1.754-.573c.019.037.462,1.4,1.071,3.379l.017.017c1.071,3.379,2.7,8.587,3.6,11.93a12.848,12.848,0,0,0,1.016,2.567c3.138,6,11.191,12.168,18.134,15.751,6.759,3.471,12.7,4.838,15.937,3.638a4.641,4.641,0,0,0,3.194-3.213,7.856,7.856,0,0,0-.719-4.875,15.3,15.3,0,0,0-1.219-2.273c-.2-.332-.443-.663-.684-1.014.333-.517.684-1.071,1.052-1.681a22.421,22.421,0,0,1,2.106,3.324,12.462,12.462,0,0,1,.83,1.957A8.722,8.722,0,0,1,469.745,177.858Z" transform="translate(-423.229 -143.345)" fill="url(#linear-gradient-145)"/>
            </g>
            <g id="Group_71" data-name="Group 71" transform="translate(5.07 42.235)">
              <path id="Path_129" data-name="Path 129" d="M478.908,179.37a7.411,7.411,0,0,1-6.556,3.232c-.222,0-.443,0-.665-.019a13.064,13.064,0,0,1-2.086-.313,18.245,18.245,0,0,1-3.379-1.146c-.167-.073-.314-.148-.481-.221-18.059-8.606-30.154-17.913-37.3-24.432l-.017-.017c-1.035-.941-1.957-1.829-2.77-2.622v-.019c-1.681-1.643-2.956-3.01-3.841-4.025-.019,0,0-.019,0-.019-1.052-1.181-1.57-1.846-1.587-1.883l-.149-.3a31.066,31.066,0,0,1,.573-16.786,3.137,3.137,0,0,1,.092-.314,30.434,30.434,0,0,1,1.459-3.711l1.681.775a30.255,30.255,0,0,0-2.548,8.7c-.13,1.108-.222,2.16-.241,3.138a27.381,27.381,0,0,0,.721,7.516c1.275,1.625,14.514,17.932,44.707,32.335.259.129.516.24.775.351.37.148.74.3,1.09.4a11.854,11.854,0,0,0,2.475.629c2.917.443,5.281-.314,6.5-2.235.922-1.459,1.033-3.656-.094-6.13a13.256,13.256,0,0,0-1.2-2.049,17.025,17.025,0,0,0-1.754-2.087c.332-.554.646-1.125.941-1.662a17.961,17.961,0,0,1,3.214,4.044,11.807,11.807,0,0,1,.849,1.846A7.868,7.868,0,0,1,478.908,179.37Z" transform="translate(-419.198 -126.779)" fill="url(#linear-gradient-146)"/>
            </g>
            <g id="Group_72" data-name="Group 72" transform="translate(5.392 51.505)">
              <path id="Path_130" data-name="Path 130" d="M483.959,166.965c-.96,1.275-2.567,1.921-4.763,1.957a1.451,1.451,0,0,1-.3.019,14.783,14.783,0,0,1-1.756-.111,26.034,26.034,0,0,1-4.764-1.071,71.985,71.985,0,0,1-13.738-6.13c-21.107-11.689-33.3-19.962-37.672-25.669a13.389,13.389,0,0,1-.978-1.459c-.019,0,0-.017,0-.017a7.478,7.478,0,0,1-.592-1.219l.554-.2,1.183-.443a1.173,1.173,0,0,0,.075.184v.019c2.122,5.152,14.994,14.292,38.316,27.2a69.577,69.577,0,0,0,13.832,6.13c.941.278,1.81.481,2.584.629a15.718,15.718,0,0,0,2.4.3c2.178.092,3.508-.387,4.137-1.219,1.348-1.791-.186-5.613-3.749-9.694.314-.61.59-1.219.868-1.792C484.329,159.5,485.991,164.251,483.959,166.965Z" transform="translate(-419.401 -132.619)" fill="url(#linear-gradient-147)"/>
            </g>
            <path id="Path_131" data-name="Path 131" d="M418.894,128.143s3.646,4.022,12.345,9.118c7.951,4.657,13.735,6.406,14.543,6.464s3.863-6.4,2.613-7.26c-2.771-1.9-7.07-3.351-13.578-7.34-7.156-4.386-10.386-7.445-11.714-7.848S418.031,126.932,418.894,128.143Z" transform="translate(-414.382 -87.787)" fill="url(#linear-gradient-148)"/>
            <path id="Path_132" data-name="Path 132" d="M480.7,153.509c-8.217,5.262-34.661.4-34.661.4,17.207-37.283,7.5-52.554,7.5-52.554h.075a46.481,46.481,0,0,1,13.813,7.24C488.274,124.424,480.7,153.509,480.7,153.509Z" transform="translate(-398.362 -99.473)" opacity="0.2" fill="url(#linear-gradient-149)" style="mix-blend-mode: screen;isolation: isolate"/>
          </g>
          <path id="Path_133" data-name="Path 133" d="M527.019,60.834c-3.251-1.033-23.767,5.783-45.077,19.821C426.462,117.2,364.776,167.4,364.776,167.4c-1.957-4.359-3.01-7.867-2.494-8.771.979-1.717,76.893-62.4,113.825-85.683C511.026,50.936,519.873,52.58,527.019,60.834Z" transform="translate(-224.138 -55.19)" opacity="0.2" fill="url(#linear-gradient-150)" style="mix-blend-mode: screen;isolation: isolate"/>
          <g id="Group_74" data-name="Group 74" transform="translate(405.263 513.202)">
            <path id="Path_134" data-name="Path 134" d="M531.974,399.533s-3.887,5.968,1.04,8.483c5.54,2.827,19.649,4.789,36.384,4.213s30.843-1.789,38.056-4.9c1.565-.676.924-8.2.924-8.2Z" transform="translate(-530.518 -366.392)" fill="url(#linear-gradient-151)"/>
            <path id="Path_135" data-name="Path 135" d="M609.348,409.51c-.017,2.6-.609,4.819-2.086,6.222-5.245,4.986-73.864,9.713-76.394-1.606-1.275-5.632,2.7-15.235,11.191-19.575a20.655,20.655,0,0,1,7.183-2.141,56.453,56.453,0,0,1,11.837.129,17.643,17.643,0,0,1,2.586-3.711l.019-.019c1.384-1.108,4.321-3.36,10.821-3.065,5.89.259,12.981,1.478,16.619-.7,1.921-1.164-.5-6.629.111-6.537,1.735.24,7.867,4.69,12.354,11.984C605.709,393.925,609.4,402.9,609.348,409.51Z" transform="translate(-530.449 -378.504)" fill="url(#linear-gradient-152)"/>
            <path id="Path_136" data-name="Path 136" d="M569.591,393.361c-5.245-2.584-19.778-4.635-19.778-4.635a17.644,17.644,0,0,1,2.586-3.711l.019-.019C562.407,385.791,569.148,392.882,569.591,393.361Z" transform="translate(-519.185 -374.692)" opacity="0.4" fill="url(#linear-gradient-153)" style="mix-blend-mode: multiply;isolation: isolate"/>
            <path id="Path_137" data-name="Path 137" d="M609.348,403.573c-.017,2.6-.609,4.819-2.086,6.222-5.245,4.986-73.864,9.713-76.394-1.606-1.275-5.632,2.7-15.235,11.191-19.575-.554.444-9.473,7.738.017,13.351C551.863,407.727,602.886,412.325,609.348,403.573Z" transform="translate(-530.449 -372.567)" opacity="0.4" fill="url(#linear-gradient-154)" style="mix-blend-mode: multiply;isolation: isolate"/>
          </g>
          <path id="Path_138" data-name="Path 138" d="M345.658,131.726s3.359.4,3.665,1.117c.7,1.627.808,3.038,2.654,8.348s7.414,19.213,7.876,21.01,1.033,4.035-.259,5.421c-1.2,1.29-4.927,3.424-7.271,5.848s-4.6,6.694-7.021,8.137-7.5,3.173-9.175,2.77A10.754,10.754,0,0,1,332.42,182l4.862-21.23Z" transform="translate(-241.6 -10.239)" fill="url(#linear-gradient-155)"/>
          <path id="Path_139" data-name="Path 139" d="M324.607,156.1c2.864,13.081,9.232,23.057,12,25.6s9.926.268,11.773-2.289,5.614-7.887,8.578-9.956,4.579-3.283,4.81-4.867-10.233-26.869-10.7-31.44-7.537,2.849-7.884,4.464c-4.965,1.23-4.965,3.232-6.119,3.924s-.922,2.54-2.078,3.694-4.616,2.3-5.308,3.8S323.824,152.525,324.607,156.1Z" transform="translate(-246.236 -10.269)" fill="url(#linear-gradient-156)"/>
          <path id="Path_140" data-name="Path 140" d="M364.449,137.483s35.311-28.807,38.965-27.6c5.848,1.922,15.354,13.926,15.349,20.059-.006,6.8-40.662,27.423-40.662,27.423S369.263,148.545,364.449,137.483Z" transform="translate(-222.789 -23.092)" opacity="0.5" fill="url(#linear-gradient-157)" style="mix-blend-mode: screen;isolation: isolate"/>
        </g>
        <g id="Group_76" data-name="Group 76" transform="translate(797.978 265.637)">
          <path id="Path_141" data-name="Path 141" d="M597.4,239.907a17.36,17.36,0,1,1-.119-2.037A17.965,17.965,0,0,1,597.4,239.907Z" transform="translate(-562.647 -222.54)" fill="url(#linear-gradient-158)"/>
          <path id="Path_142" data-name="Path 142" d="M597.4,238.173a16.95,16.95,0,0,1-.6,4.538,17.377,17.377,0,0,1-34.154-4.538,17.083,17.083,0,0,1,1.625-7.308.31.31,0,0,0,.021-.081,17.584,17.584,0,0,1,3.9-5.3s-3.413,13.975,8.714,19.256c11.827,5.14,19.4-3.194,20.38-8.594A16.761,16.761,0,0,1,597.4,238.173Z" transform="translate(-562.647 -220.811)" opacity="0.5" fill="url(#linear-gradient-159)" style="mix-blend-mode: multiply;isolation: isolate"/>
          <path id="Path_143" data-name="Path 143" d="M596.8,240.72a17.377,17.377,0,0,1-34.154-4.538,17.083,17.083,0,0,1,1.625-7.308c-.24,1.124-1.148,14.978,11.2,19.316C590,253.29,596.8,240.72,596.8,240.72Z" transform="translate(-562.647 -218.82)" opacity="0.5" fill="url(#linear-gradient-160)" style="mix-blend-mode: multiply;isolation: isolate"/>
          <path id="Path_144" data-name="Path 144" d="M576.854,223.786s-6.151-1.09-5.259,4.068,11.508,12.6,15.378,10.119S587.071,225.275,576.854,223.786Z" transform="translate(-557.444 -221.865)" opacity="0.4" fill="url(#linear-gradient-161)" style="mix-blend-mode: screen;isolation: isolate"/>
          <path id="Path_145" data-name="Path 145" d="M562.75,237.505s5.659,4.7,18.457,2.018c12.953-2.711,15.538-8.9,15.538-8.9s.484.106,0,1.346c-.29.743-3.765,6.068-15.44,8.532-7.633,1.611-14.475.248-17.565-1.527C562.577,238.305,562.75,237.505,562.75,237.505Z" transform="translate(-562.592 -217.794)" fill="url(#linear-gradient-162)"/>
          <path id="Path_146" data-name="Path 146" d="M563.371,239.993s5.513,4.584,18.31,1.906c12.952-2.711,15.279-8.9,15.279-8.9a2.138,2.138,0,0,1-.284,1.889c-.286.519-3.6,5.659-14.9,7.987-7.641,1.576-14.522.249-17.051-1.333C563.393,240.706,563.371,239.993,563.371,239.993Z" transform="translate(-562.222 -216.398)" fill="url(#linear-gradient-163)"/>
        </g>
      </g>
    </g>
  </g>
</svg>
